%TF.GenerationSoftware,KiCad,Pcbnew,7.0.1*%
%TF.CreationDate,2023-05-28T14:58:13-06:00*%
%TF.ProjectId,Phase D,50686173-6520-4442-9e6b-696361645f70,rev?*%
%TF.SameCoordinates,Original*%
%TF.FileFunction,Legend,Top*%
%TF.FilePolarity,Positive*%
%FSLAX46Y46*%
G04 Gerber Fmt 4.6, Leading zero omitted, Abs format (unit mm)*
G04 Created by KiCad (PCBNEW 7.0.1) date 2023-05-28 14:58:13*
%MOMM*%
%LPD*%
G01*
G04 APERTURE LIST*
%ADD10C,0.150000*%
%ADD11C,0.120000*%
G04 APERTURE END LIST*
D10*
X163246428Y-88133809D02*
X163389285Y-88181428D01*
X163389285Y-88181428D02*
X163436904Y-88229047D01*
X163436904Y-88229047D02*
X163484523Y-88324285D01*
X163484523Y-88324285D02*
X163484523Y-88467142D01*
X163484523Y-88467142D02*
X163436904Y-88562380D01*
X163436904Y-88562380D02*
X163389285Y-88610000D01*
X163389285Y-88610000D02*
X163294047Y-88657619D01*
X163294047Y-88657619D02*
X162913095Y-88657619D01*
X162913095Y-88657619D02*
X162913095Y-87657619D01*
X162913095Y-87657619D02*
X163246428Y-87657619D01*
X163246428Y-87657619D02*
X163341666Y-87705238D01*
X163341666Y-87705238D02*
X163389285Y-87752857D01*
X163389285Y-87752857D02*
X163436904Y-87848095D01*
X163436904Y-87848095D02*
X163436904Y-87943333D01*
X163436904Y-87943333D02*
X163389285Y-88038571D01*
X163389285Y-88038571D02*
X163341666Y-88086190D01*
X163341666Y-88086190D02*
X163246428Y-88133809D01*
X163246428Y-88133809D02*
X162913095Y-88133809D01*
X163913095Y-88657619D02*
X163913095Y-87990952D01*
X163913095Y-88181428D02*
X163960714Y-88086190D01*
X163960714Y-88086190D02*
X164008333Y-88038571D01*
X164008333Y-88038571D02*
X164103571Y-87990952D01*
X164103571Y-87990952D02*
X164198809Y-87990952D01*
X164532143Y-88657619D02*
X164532143Y-87990952D01*
X164532143Y-87657619D02*
X164484524Y-87705238D01*
X164484524Y-87705238D02*
X164532143Y-87752857D01*
X164532143Y-87752857D02*
X164579762Y-87705238D01*
X164579762Y-87705238D02*
X164532143Y-87657619D01*
X164532143Y-87657619D02*
X164532143Y-87752857D01*
X165436904Y-88657619D02*
X165436904Y-88133809D01*
X165436904Y-88133809D02*
X165389285Y-88038571D01*
X165389285Y-88038571D02*
X165294047Y-87990952D01*
X165294047Y-87990952D02*
X165103571Y-87990952D01*
X165103571Y-87990952D02*
X165008333Y-88038571D01*
X165436904Y-88610000D02*
X165341666Y-88657619D01*
X165341666Y-88657619D02*
X165103571Y-88657619D01*
X165103571Y-88657619D02*
X165008333Y-88610000D01*
X165008333Y-88610000D02*
X164960714Y-88514761D01*
X164960714Y-88514761D02*
X164960714Y-88419523D01*
X164960714Y-88419523D02*
X165008333Y-88324285D01*
X165008333Y-88324285D02*
X165103571Y-88276666D01*
X165103571Y-88276666D02*
X165341666Y-88276666D01*
X165341666Y-88276666D02*
X165436904Y-88229047D01*
X165913095Y-87990952D02*
X165913095Y-88657619D01*
X165913095Y-88086190D02*
X165960714Y-88038571D01*
X165960714Y-88038571D02*
X166055952Y-87990952D01*
X166055952Y-87990952D02*
X166198809Y-87990952D01*
X166198809Y-87990952D02*
X166294047Y-88038571D01*
X166294047Y-88038571D02*
X166341666Y-88133809D01*
X166341666Y-88133809D02*
X166341666Y-88657619D01*
X168055952Y-88657619D02*
X167579762Y-88657619D01*
X167579762Y-88657619D02*
X167579762Y-87657619D01*
X168770238Y-88610000D02*
X168675000Y-88657619D01*
X168675000Y-88657619D02*
X168484524Y-88657619D01*
X168484524Y-88657619D02*
X168389286Y-88610000D01*
X168389286Y-88610000D02*
X168341667Y-88514761D01*
X168341667Y-88514761D02*
X168341667Y-88133809D01*
X168341667Y-88133809D02*
X168389286Y-88038571D01*
X168389286Y-88038571D02*
X168484524Y-87990952D01*
X168484524Y-87990952D02*
X168675000Y-87990952D01*
X168675000Y-87990952D02*
X168770238Y-88038571D01*
X168770238Y-88038571D02*
X168817857Y-88133809D01*
X168817857Y-88133809D02*
X168817857Y-88229047D01*
X168817857Y-88229047D02*
X168341667Y-88324285D01*
X169627381Y-88610000D02*
X169532143Y-88657619D01*
X169532143Y-88657619D02*
X169341667Y-88657619D01*
X169341667Y-88657619D02*
X169246429Y-88610000D01*
X169246429Y-88610000D02*
X169198810Y-88514761D01*
X169198810Y-88514761D02*
X169198810Y-88133809D01*
X169198810Y-88133809D02*
X169246429Y-88038571D01*
X169246429Y-88038571D02*
X169341667Y-87990952D01*
X169341667Y-87990952D02*
X169532143Y-87990952D01*
X169532143Y-87990952D02*
X169627381Y-88038571D01*
X169627381Y-88038571D02*
X169675000Y-88133809D01*
X169675000Y-88133809D02*
X169675000Y-88229047D01*
X169675000Y-88229047D02*
X169198810Y-88324285D01*
X162913095Y-90277619D02*
X162913095Y-89277619D01*
X162913095Y-89277619D02*
X163246428Y-89991904D01*
X163246428Y-89991904D02*
X163579761Y-89277619D01*
X163579761Y-89277619D02*
X163579761Y-90277619D01*
X164484523Y-90277619D02*
X164484523Y-89753809D01*
X164484523Y-89753809D02*
X164436904Y-89658571D01*
X164436904Y-89658571D02*
X164341666Y-89610952D01*
X164341666Y-89610952D02*
X164151190Y-89610952D01*
X164151190Y-89610952D02*
X164055952Y-89658571D01*
X164484523Y-90230000D02*
X164389285Y-90277619D01*
X164389285Y-90277619D02*
X164151190Y-90277619D01*
X164151190Y-90277619D02*
X164055952Y-90230000D01*
X164055952Y-90230000D02*
X164008333Y-90134761D01*
X164008333Y-90134761D02*
X164008333Y-90039523D01*
X164008333Y-90039523D02*
X164055952Y-89944285D01*
X164055952Y-89944285D02*
X164151190Y-89896666D01*
X164151190Y-89896666D02*
X164389285Y-89896666D01*
X164389285Y-89896666D02*
X164484523Y-89849047D01*
X164865476Y-89610952D02*
X165103571Y-90277619D01*
X165341666Y-89610952D02*
X165103571Y-90277619D01*
X165103571Y-90277619D02*
X165008333Y-90515714D01*
X165008333Y-90515714D02*
X164960714Y-90563333D01*
X164960714Y-90563333D02*
X164865476Y-90610952D01*
X166436905Y-89372857D02*
X166484524Y-89325238D01*
X166484524Y-89325238D02*
X166579762Y-89277619D01*
X166579762Y-89277619D02*
X166817857Y-89277619D01*
X166817857Y-89277619D02*
X166913095Y-89325238D01*
X166913095Y-89325238D02*
X166960714Y-89372857D01*
X166960714Y-89372857D02*
X167008333Y-89468095D01*
X167008333Y-89468095D02*
X167008333Y-89563333D01*
X167008333Y-89563333D02*
X166960714Y-89706190D01*
X166960714Y-89706190D02*
X166389286Y-90277619D01*
X166389286Y-90277619D02*
X167008333Y-90277619D01*
X167627381Y-89277619D02*
X167722619Y-89277619D01*
X167722619Y-89277619D02*
X167817857Y-89325238D01*
X167817857Y-89325238D02*
X167865476Y-89372857D01*
X167865476Y-89372857D02*
X167913095Y-89468095D01*
X167913095Y-89468095D02*
X167960714Y-89658571D01*
X167960714Y-89658571D02*
X167960714Y-89896666D01*
X167960714Y-89896666D02*
X167913095Y-90087142D01*
X167913095Y-90087142D02*
X167865476Y-90182380D01*
X167865476Y-90182380D02*
X167817857Y-90230000D01*
X167817857Y-90230000D02*
X167722619Y-90277619D01*
X167722619Y-90277619D02*
X167627381Y-90277619D01*
X167627381Y-90277619D02*
X167532143Y-90230000D01*
X167532143Y-90230000D02*
X167484524Y-90182380D01*
X167484524Y-90182380D02*
X167436905Y-90087142D01*
X167436905Y-90087142D02*
X167389286Y-89896666D01*
X167389286Y-89896666D02*
X167389286Y-89658571D01*
X167389286Y-89658571D02*
X167436905Y-89468095D01*
X167436905Y-89468095D02*
X167484524Y-89372857D01*
X167484524Y-89372857D02*
X167532143Y-89325238D01*
X167532143Y-89325238D02*
X167627381Y-89277619D01*
X168341667Y-89372857D02*
X168389286Y-89325238D01*
X168389286Y-89325238D02*
X168484524Y-89277619D01*
X168484524Y-89277619D02*
X168722619Y-89277619D01*
X168722619Y-89277619D02*
X168817857Y-89325238D01*
X168817857Y-89325238D02*
X168865476Y-89372857D01*
X168865476Y-89372857D02*
X168913095Y-89468095D01*
X168913095Y-89468095D02*
X168913095Y-89563333D01*
X168913095Y-89563333D02*
X168865476Y-89706190D01*
X168865476Y-89706190D02*
X168294048Y-90277619D01*
X168294048Y-90277619D02*
X168913095Y-90277619D01*
X169246429Y-89277619D02*
X169865476Y-89277619D01*
X169865476Y-89277619D02*
X169532143Y-89658571D01*
X169532143Y-89658571D02*
X169675000Y-89658571D01*
X169675000Y-89658571D02*
X169770238Y-89706190D01*
X169770238Y-89706190D02*
X169817857Y-89753809D01*
X169817857Y-89753809D02*
X169865476Y-89849047D01*
X169865476Y-89849047D02*
X169865476Y-90087142D01*
X169865476Y-90087142D02*
X169817857Y-90182380D01*
X169817857Y-90182380D02*
X169770238Y-90230000D01*
X169770238Y-90230000D02*
X169675000Y-90277619D01*
X169675000Y-90277619D02*
X169389286Y-90277619D01*
X169389286Y-90277619D02*
X169294048Y-90230000D01*
X169294048Y-90230000D02*
X169246429Y-90182380D01*
%TO.C,J6*%
X199106666Y-83272619D02*
X199106666Y-83986904D01*
X199106666Y-83986904D02*
X199059047Y-84129761D01*
X199059047Y-84129761D02*
X198963809Y-84225000D01*
X198963809Y-84225000D02*
X198820952Y-84272619D01*
X198820952Y-84272619D02*
X198725714Y-84272619D01*
X200011428Y-83272619D02*
X199820952Y-83272619D01*
X199820952Y-83272619D02*
X199725714Y-83320238D01*
X199725714Y-83320238D02*
X199678095Y-83367857D01*
X199678095Y-83367857D02*
X199582857Y-83510714D01*
X199582857Y-83510714D02*
X199535238Y-83701190D01*
X199535238Y-83701190D02*
X199535238Y-84082142D01*
X199535238Y-84082142D02*
X199582857Y-84177380D01*
X199582857Y-84177380D02*
X199630476Y-84225000D01*
X199630476Y-84225000D02*
X199725714Y-84272619D01*
X199725714Y-84272619D02*
X199916190Y-84272619D01*
X199916190Y-84272619D02*
X200011428Y-84225000D01*
X200011428Y-84225000D02*
X200059047Y-84177380D01*
X200059047Y-84177380D02*
X200106666Y-84082142D01*
X200106666Y-84082142D02*
X200106666Y-83844047D01*
X200106666Y-83844047D02*
X200059047Y-83748809D01*
X200059047Y-83748809D02*
X200011428Y-83701190D01*
X200011428Y-83701190D02*
X199916190Y-83653571D01*
X199916190Y-83653571D02*
X199725714Y-83653571D01*
X199725714Y-83653571D02*
X199630476Y-83701190D01*
X199630476Y-83701190D02*
X199582857Y-83748809D01*
X199582857Y-83748809D02*
X199535238Y-83844047D01*
%TO.C,R4*%
X199562619Y-68466666D02*
X199086428Y-68799999D01*
X199562619Y-69038094D02*
X198562619Y-69038094D01*
X198562619Y-69038094D02*
X198562619Y-68657142D01*
X198562619Y-68657142D02*
X198610238Y-68561904D01*
X198610238Y-68561904D02*
X198657857Y-68514285D01*
X198657857Y-68514285D02*
X198753095Y-68466666D01*
X198753095Y-68466666D02*
X198895952Y-68466666D01*
X198895952Y-68466666D02*
X198991190Y-68514285D01*
X198991190Y-68514285D02*
X199038809Y-68561904D01*
X199038809Y-68561904D02*
X199086428Y-68657142D01*
X199086428Y-68657142D02*
X199086428Y-69038094D01*
X198895952Y-67609523D02*
X199562619Y-67609523D01*
X198515000Y-67847618D02*
X199229285Y-68085713D01*
X199229285Y-68085713D02*
X199229285Y-67466666D01*
%TO.C,TH1*%
X132239286Y-66612619D02*
X132810714Y-66612619D01*
X132525000Y-67612619D02*
X132525000Y-66612619D01*
X133144048Y-67612619D02*
X133144048Y-66612619D01*
X133144048Y-67088809D02*
X133715476Y-67088809D01*
X133715476Y-67612619D02*
X133715476Y-66612619D01*
X134715476Y-67612619D02*
X134144048Y-67612619D01*
X134429762Y-67612619D02*
X134429762Y-66612619D01*
X134429762Y-66612619D02*
X134334524Y-66755476D01*
X134334524Y-66755476D02*
X134239286Y-66850714D01*
X134239286Y-66850714D02*
X134144048Y-66898333D01*
%TO.C,R2*%
X133783333Y-90312619D02*
X133450000Y-89836428D01*
X133211905Y-90312619D02*
X133211905Y-89312619D01*
X133211905Y-89312619D02*
X133592857Y-89312619D01*
X133592857Y-89312619D02*
X133688095Y-89360238D01*
X133688095Y-89360238D02*
X133735714Y-89407857D01*
X133735714Y-89407857D02*
X133783333Y-89503095D01*
X133783333Y-89503095D02*
X133783333Y-89645952D01*
X133783333Y-89645952D02*
X133735714Y-89741190D01*
X133735714Y-89741190D02*
X133688095Y-89788809D01*
X133688095Y-89788809D02*
X133592857Y-89836428D01*
X133592857Y-89836428D02*
X133211905Y-89836428D01*
X134164286Y-89407857D02*
X134211905Y-89360238D01*
X134211905Y-89360238D02*
X134307143Y-89312619D01*
X134307143Y-89312619D02*
X134545238Y-89312619D01*
X134545238Y-89312619D02*
X134640476Y-89360238D01*
X134640476Y-89360238D02*
X134688095Y-89407857D01*
X134688095Y-89407857D02*
X134735714Y-89503095D01*
X134735714Y-89503095D02*
X134735714Y-89598333D01*
X134735714Y-89598333D02*
X134688095Y-89741190D01*
X134688095Y-89741190D02*
X134116667Y-90312619D01*
X134116667Y-90312619D02*
X134735714Y-90312619D01*
%TO.C,J7*%
X129616666Y-79387619D02*
X129616666Y-80101904D01*
X129616666Y-80101904D02*
X129569047Y-80244761D01*
X129569047Y-80244761D02*
X129473809Y-80340000D01*
X129473809Y-80340000D02*
X129330952Y-80387619D01*
X129330952Y-80387619D02*
X129235714Y-80387619D01*
X129997619Y-79387619D02*
X130664285Y-79387619D01*
X130664285Y-79387619D02*
X130235714Y-80387619D01*
%TO.C,R3*%
X133358333Y-75237619D02*
X133025000Y-74761428D01*
X132786905Y-75237619D02*
X132786905Y-74237619D01*
X132786905Y-74237619D02*
X133167857Y-74237619D01*
X133167857Y-74237619D02*
X133263095Y-74285238D01*
X133263095Y-74285238D02*
X133310714Y-74332857D01*
X133310714Y-74332857D02*
X133358333Y-74428095D01*
X133358333Y-74428095D02*
X133358333Y-74570952D01*
X133358333Y-74570952D02*
X133310714Y-74666190D01*
X133310714Y-74666190D02*
X133263095Y-74713809D01*
X133263095Y-74713809D02*
X133167857Y-74761428D01*
X133167857Y-74761428D02*
X132786905Y-74761428D01*
X133691667Y-74237619D02*
X134310714Y-74237619D01*
X134310714Y-74237619D02*
X133977381Y-74618571D01*
X133977381Y-74618571D02*
X134120238Y-74618571D01*
X134120238Y-74618571D02*
X134215476Y-74666190D01*
X134215476Y-74666190D02*
X134263095Y-74713809D01*
X134263095Y-74713809D02*
X134310714Y-74809047D01*
X134310714Y-74809047D02*
X134310714Y-75047142D01*
X134310714Y-75047142D02*
X134263095Y-75142380D01*
X134263095Y-75142380D02*
X134215476Y-75190000D01*
X134215476Y-75190000D02*
X134120238Y-75237619D01*
X134120238Y-75237619D02*
X133834524Y-75237619D01*
X133834524Y-75237619D02*
X133739286Y-75190000D01*
X133739286Y-75190000D02*
X133691667Y-75142380D01*
%TO.C,J1*%
X193936666Y-63717619D02*
X193936666Y-64431904D01*
X193936666Y-64431904D02*
X193889047Y-64574761D01*
X193889047Y-64574761D02*
X193793809Y-64670000D01*
X193793809Y-64670000D02*
X193650952Y-64717619D01*
X193650952Y-64717619D02*
X193555714Y-64717619D01*
X194936666Y-64717619D02*
X194365238Y-64717619D01*
X194650952Y-64717619D02*
X194650952Y-63717619D01*
X194650952Y-63717619D02*
X194555714Y-63860476D01*
X194555714Y-63860476D02*
X194460476Y-63955714D01*
X194460476Y-63955714D02*
X194365238Y-64003333D01*
%TO.C,R1*%
X133233333Y-71387619D02*
X132900000Y-70911428D01*
X132661905Y-71387619D02*
X132661905Y-70387619D01*
X132661905Y-70387619D02*
X133042857Y-70387619D01*
X133042857Y-70387619D02*
X133138095Y-70435238D01*
X133138095Y-70435238D02*
X133185714Y-70482857D01*
X133185714Y-70482857D02*
X133233333Y-70578095D01*
X133233333Y-70578095D02*
X133233333Y-70720952D01*
X133233333Y-70720952D02*
X133185714Y-70816190D01*
X133185714Y-70816190D02*
X133138095Y-70863809D01*
X133138095Y-70863809D02*
X133042857Y-70911428D01*
X133042857Y-70911428D02*
X132661905Y-70911428D01*
X134185714Y-71387619D02*
X133614286Y-71387619D01*
X133900000Y-71387619D02*
X133900000Y-70387619D01*
X133900000Y-70387619D02*
X133804762Y-70530476D01*
X133804762Y-70530476D02*
X133709524Y-70625714D01*
X133709524Y-70625714D02*
X133614286Y-70673333D01*
%TO.C,J8*%
X142271666Y-63782619D02*
X142271666Y-64496904D01*
X142271666Y-64496904D02*
X142224047Y-64639761D01*
X142224047Y-64639761D02*
X142128809Y-64735000D01*
X142128809Y-64735000D02*
X141985952Y-64782619D01*
X141985952Y-64782619D02*
X141890714Y-64782619D01*
X142890714Y-64211190D02*
X142795476Y-64163571D01*
X142795476Y-64163571D02*
X142747857Y-64115952D01*
X142747857Y-64115952D02*
X142700238Y-64020714D01*
X142700238Y-64020714D02*
X142700238Y-63973095D01*
X142700238Y-63973095D02*
X142747857Y-63877857D01*
X142747857Y-63877857D02*
X142795476Y-63830238D01*
X142795476Y-63830238D02*
X142890714Y-63782619D01*
X142890714Y-63782619D02*
X143081190Y-63782619D01*
X143081190Y-63782619D02*
X143176428Y-63830238D01*
X143176428Y-63830238D02*
X143224047Y-63877857D01*
X143224047Y-63877857D02*
X143271666Y-63973095D01*
X143271666Y-63973095D02*
X143271666Y-64020714D01*
X143271666Y-64020714D02*
X143224047Y-64115952D01*
X143224047Y-64115952D02*
X143176428Y-64163571D01*
X143176428Y-64163571D02*
X143081190Y-64211190D01*
X143081190Y-64211190D02*
X142890714Y-64211190D01*
X142890714Y-64211190D02*
X142795476Y-64258809D01*
X142795476Y-64258809D02*
X142747857Y-64306428D01*
X142747857Y-64306428D02*
X142700238Y-64401666D01*
X142700238Y-64401666D02*
X142700238Y-64592142D01*
X142700238Y-64592142D02*
X142747857Y-64687380D01*
X142747857Y-64687380D02*
X142795476Y-64735000D01*
X142795476Y-64735000D02*
X142890714Y-64782619D01*
X142890714Y-64782619D02*
X143081190Y-64782619D01*
X143081190Y-64782619D02*
X143176428Y-64735000D01*
X143176428Y-64735000D02*
X143224047Y-64687380D01*
X143224047Y-64687380D02*
X143271666Y-64592142D01*
X143271666Y-64592142D02*
X143271666Y-64401666D01*
X143271666Y-64401666D02*
X143224047Y-64306428D01*
X143224047Y-64306428D02*
X143176428Y-64258809D01*
X143176428Y-64258809D02*
X143081190Y-64211190D01*
%TO.C,J5*%
X133641666Y-84487619D02*
X133641666Y-85201904D01*
X133641666Y-85201904D02*
X133594047Y-85344761D01*
X133594047Y-85344761D02*
X133498809Y-85440000D01*
X133498809Y-85440000D02*
X133355952Y-85487619D01*
X133355952Y-85487619D02*
X133260714Y-85487619D01*
X134594047Y-84487619D02*
X134117857Y-84487619D01*
X134117857Y-84487619D02*
X134070238Y-84963809D01*
X134070238Y-84963809D02*
X134117857Y-84916190D01*
X134117857Y-84916190D02*
X134213095Y-84868571D01*
X134213095Y-84868571D02*
X134451190Y-84868571D01*
X134451190Y-84868571D02*
X134546428Y-84916190D01*
X134546428Y-84916190D02*
X134594047Y-84963809D01*
X134594047Y-84963809D02*
X134641666Y-85059047D01*
X134641666Y-85059047D02*
X134641666Y-85297142D01*
X134641666Y-85297142D02*
X134594047Y-85392380D01*
X134594047Y-85392380D02*
X134546428Y-85440000D01*
X134546428Y-85440000D02*
X134451190Y-85487619D01*
X134451190Y-85487619D02*
X134213095Y-85487619D01*
X134213095Y-85487619D02*
X134117857Y-85440000D01*
X134117857Y-85440000D02*
X134070238Y-85392380D01*
%TO.C,LS1*%
X131982142Y-98712619D02*
X131505952Y-98712619D01*
X131505952Y-98712619D02*
X131505952Y-97712619D01*
X132267857Y-98665000D02*
X132410714Y-98712619D01*
X132410714Y-98712619D02*
X132648809Y-98712619D01*
X132648809Y-98712619D02*
X132744047Y-98665000D01*
X132744047Y-98665000D02*
X132791666Y-98617380D01*
X132791666Y-98617380D02*
X132839285Y-98522142D01*
X132839285Y-98522142D02*
X132839285Y-98426904D01*
X132839285Y-98426904D02*
X132791666Y-98331666D01*
X132791666Y-98331666D02*
X132744047Y-98284047D01*
X132744047Y-98284047D02*
X132648809Y-98236428D01*
X132648809Y-98236428D02*
X132458333Y-98188809D01*
X132458333Y-98188809D02*
X132363095Y-98141190D01*
X132363095Y-98141190D02*
X132315476Y-98093571D01*
X132315476Y-98093571D02*
X132267857Y-97998333D01*
X132267857Y-97998333D02*
X132267857Y-97903095D01*
X132267857Y-97903095D02*
X132315476Y-97807857D01*
X132315476Y-97807857D02*
X132363095Y-97760238D01*
X132363095Y-97760238D02*
X132458333Y-97712619D01*
X132458333Y-97712619D02*
X132696428Y-97712619D01*
X132696428Y-97712619D02*
X132839285Y-97760238D01*
X133791666Y-98712619D02*
X133220238Y-98712619D01*
X133505952Y-98712619D02*
X133505952Y-97712619D01*
X133505952Y-97712619D02*
X133410714Y-97855476D01*
X133410714Y-97855476D02*
X133315476Y-97950714D01*
X133315476Y-97950714D02*
X133220238Y-97998333D01*
X136054048Y-100871666D02*
X136815953Y-100871666D01*
X136435000Y-101252619D02*
X136435000Y-100490714D01*
D11*
%TO.C,J6*%
X200770000Y-79770000D02*
X200770000Y-74630000D01*
X200770000Y-79770000D02*
X198110000Y-79770000D01*
X200770000Y-74630000D02*
X198110000Y-74630000D01*
X199440000Y-82370000D02*
X198110000Y-82370000D01*
X198110000Y-82370000D02*
X198110000Y-81040000D01*
X198110000Y-79770000D02*
X198110000Y-74630000D01*
%TO.C,R4*%
X197830000Y-71640000D02*
X197830000Y-65100000D01*
X198160000Y-71640000D02*
X197830000Y-71640000D01*
X200240000Y-71640000D02*
X200570000Y-71640000D01*
X200570000Y-71640000D02*
X200570000Y-65100000D01*
X197830000Y-65100000D02*
X198160000Y-65100000D01*
X200570000Y-65100000D02*
X200240000Y-65100000D01*
%TO.C,TH1*%
X130180000Y-65780000D02*
X136720000Y-65780000D01*
X130180000Y-66110000D02*
X130180000Y-65780000D01*
X130180000Y-68190000D02*
X130180000Y-68520000D01*
X130180000Y-68520000D02*
X136720000Y-68520000D01*
X136720000Y-65780000D02*
X136720000Y-66110000D01*
X136720000Y-68520000D02*
X136720000Y-68190000D01*
%TO.C,R2*%
X130705000Y-88505000D02*
X137245000Y-88505000D01*
X130705000Y-88835000D02*
X130705000Y-88505000D01*
X130705000Y-90915000D02*
X130705000Y-91245000D01*
X130705000Y-91245000D02*
X137245000Y-91245000D01*
X137245000Y-88505000D02*
X137245000Y-88835000D01*
X137245000Y-91245000D02*
X137245000Y-90915000D01*
%TO.C,J7*%
X134180000Y-79730000D02*
X134180000Y-77130000D01*
X134180000Y-79730000D02*
X131520000Y-79730000D01*
X134180000Y-77130000D02*
X131520000Y-77130000D01*
X132850000Y-82330000D02*
X131520000Y-82330000D01*
X131520000Y-82330000D02*
X131520000Y-81000000D01*
X131520000Y-79730000D02*
X131520000Y-77130000D01*
%TO.C,R3*%
X136725000Y-75995000D02*
X130185000Y-75995000D01*
X136725000Y-75665000D02*
X136725000Y-75995000D01*
X136725000Y-73585000D02*
X136725000Y-73255000D01*
X136725000Y-73255000D02*
X130185000Y-73255000D01*
X130185000Y-75995000D02*
X130185000Y-75665000D01*
X130185000Y-73255000D02*
X130185000Y-73585000D01*
%TO.C,J1*%
X191670000Y-65695000D02*
X191670000Y-67025000D01*
X191670000Y-68295000D02*
X191670000Y-129315000D01*
X193000000Y-65695000D02*
X191670000Y-65695000D01*
X194270000Y-65695000D02*
X194270000Y-68295000D01*
X194270000Y-68295000D02*
X191670000Y-68295000D01*
X196870000Y-65695000D02*
X194270000Y-65695000D01*
X196870000Y-65695000D02*
X196870000Y-129315000D01*
X196870000Y-129315000D02*
X191670000Y-129315000D01*
%TO.C,R1*%
X136725000Y-72045000D02*
X130185000Y-72045000D01*
X136725000Y-71715000D02*
X136725000Y-72045000D01*
X136725000Y-69635000D02*
X136725000Y-69305000D01*
X136725000Y-69305000D02*
X130185000Y-69305000D01*
X130185000Y-72045000D02*
X130185000Y-71715000D01*
X130185000Y-69305000D02*
X130185000Y-69635000D01*
%TO.C,J8*%
X140005000Y-65760000D02*
X140005000Y-67090000D01*
X140005000Y-68360000D02*
X140005000Y-129380000D01*
X141335000Y-65760000D02*
X140005000Y-65760000D01*
X142605000Y-65760000D02*
X142605000Y-68360000D01*
X142605000Y-68360000D02*
X140005000Y-68360000D01*
X145205000Y-65760000D02*
X142605000Y-65760000D01*
X145205000Y-65760000D02*
X145205000Y-129380000D01*
X145205000Y-129380000D02*
X140005000Y-129380000D01*
%TO.C,J5*%
X135745000Y-79770000D02*
X135745000Y-87450000D01*
X135745000Y-79770000D02*
X138405000Y-79770000D01*
X135745000Y-87450000D02*
X138405000Y-87450000D01*
X137075000Y-77170000D02*
X138405000Y-77170000D01*
X138405000Y-77170000D02*
X138405000Y-78500000D01*
X138405000Y-79770000D02*
X138405000Y-87450000D01*
%TO.C,LS1*%
X138725000Y-98250000D02*
G75*
G03*
X138725000Y-98250000I-6100000J0D01*
G01*
%TD*%
M02*
