M48
; DRILL file {KiCad 7.0.1} date Sun May 28 14:58:06 2023
; FORMAT={-:-/ absolute / inch / decimal}
; #@! TF.CreationDate,2023-05-28T14:58:06-06:00
; #@! TF.GenerationSoftware,Kicad,Pcbnew,7.0.1
; #@! TF.FileFunction,Plated,1,2,PTH
FMAT,2
INCH
; #@! TA.AperFunction,Plated,PTH,ViaDrill
T1C0.0157
; #@! TA.AperFunction,Plated,PTH,ComponentDrill
T2C0.0315
; #@! TA.AperFunction,Plated,PTH,ComponentDrill
T3C0.0394
%
G90
G05
T1
X4.9941Y-3.8691
X5.0394Y-2.937
X5.0413Y-2.7815
X5.124Y-3.4665
X5.3957Y-3.4626
X5.4242Y-3.4764
X5.4911Y-5.0413
X5.4951Y-2.6368
X5.5Y-2.8219
X5.7343Y-2.6368
X5.7343Y-5.0413
X7.53Y-5.0399
X7.5984Y-2.5719
X7.6533Y-2.8944
X7.7008Y-2.5699
X7.7717Y-5.0388
X7.8425Y-2.6063
X7.9193Y-3.0915
T2
X5.1039Y-2.6437
X5.1041Y-2.7825
X5.1041Y-2.938
X5.1246Y-3.5384
X5.4039Y-2.6437
X5.4041Y-2.7825
X5.4041Y-2.938
X5.4246Y-3.5384
X7.8425Y-2.5417
X7.8425Y-2.8417
T3
X5.0719Y-3.8681
X5.2303Y-3.089
X5.2303Y-3.189
X5.3711Y-3.8681
X5.3967Y-3.0906
X5.3967Y-3.1906
X5.3967Y-3.2906
X5.3967Y-3.3906
X5.5644Y-2.6413
X5.5644Y-2.7413
X5.5644Y-2.8413
X5.5644Y-2.9413
X5.5644Y-3.0413
X5.5644Y-3.1413
X5.5644Y-3.2413
X5.5644Y-3.3413
X5.5644Y-3.4413
X5.5644Y-3.5413
X5.5644Y-3.6413
X5.5644Y-3.7413
X5.5644Y-3.8413
X5.5644Y-3.9413
X5.5644Y-4.0413
X5.5644Y-4.1413
X5.5644Y-4.2413
X5.5644Y-4.3413
X5.5644Y-4.4413
X5.5644Y-4.5413
X5.5644Y-4.6413
X5.5644Y-4.7413
X5.5644Y-4.8413
X5.5644Y-4.9413
X5.5644Y-5.0413
X5.6644Y-2.6413
X5.6644Y-2.7413
X5.6644Y-2.8413
X5.6644Y-2.9413
X5.6644Y-3.0413
X5.6644Y-3.1413
X5.6644Y-3.2413
X5.6644Y-3.3413
X5.6644Y-3.4413
X5.6644Y-3.5413
X5.6644Y-3.6413
X5.6644Y-3.7413
X5.6644Y-3.8413
X5.6644Y-3.9413
X5.6644Y-4.0413
X5.6644Y-4.1413
X5.6644Y-4.2413
X5.6644Y-4.3413
X5.6644Y-4.4413
X5.6644Y-4.5413
X5.6644Y-4.6413
X5.6644Y-4.7413
X5.6644Y-4.8413
X5.6644Y-4.9413
X5.6644Y-5.0413
X7.5984Y-2.6388
X7.5984Y-2.7388
X7.5984Y-2.8388
X7.5984Y-2.9388
X7.5984Y-3.0388
X7.5984Y-3.1388
X7.5984Y-3.2388
X7.5984Y-3.3388
X7.5984Y-3.4388
X7.5984Y-3.5388
X7.5984Y-3.6388
X7.5984Y-3.7388
X7.5984Y-3.8388
X7.5984Y-3.9388
X7.5984Y-4.0388
X7.5984Y-4.1388
X7.5984Y-4.2388
X7.5984Y-4.3388
X7.5984Y-4.4388
X7.5984Y-4.5388
X7.5984Y-4.6388
X7.5984Y-4.7388
X7.5984Y-4.8388
X7.5984Y-4.9388
X7.5984Y-5.0388
X7.6984Y-2.6388
X7.6984Y-2.7388
X7.6984Y-2.8388
X7.6984Y-2.9388
X7.6984Y-3.0388
X7.6984Y-3.1388
X7.6984Y-3.2388
X7.6984Y-3.3388
X7.6984Y-3.4388
X7.6984Y-3.5388
X7.6984Y-3.6388
X7.6984Y-3.7388
X7.6984Y-3.8388
X7.6984Y-3.9388
X7.6984Y-4.0388
X7.6984Y-4.1388
X7.6984Y-4.2388
X7.6984Y-4.3388
X7.6984Y-4.4388
X7.6984Y-4.5388
X7.6984Y-4.6388
X7.6984Y-4.7388
X7.6984Y-4.8388
X7.6984Y-4.9388
X7.6984Y-5.0388
X7.852Y-2.9906
X7.852Y-3.0906
X7.852Y-3.1906
T0
M30
