%TF.GenerationSoftware,KiCad,Pcbnew,7.0.1*%
%TF.CreationDate,2023-05-28T14:58:13-06:00*%
%TF.ProjectId,Phase D,50686173-6520-4442-9e6b-696361645f70,rev?*%
%TF.SameCoordinates,Original*%
%TF.FileFunction,Soldermask,Top*%
%TF.FilePolarity,Negative*%
%FSLAX46Y46*%
G04 Gerber Fmt 4.6, Leading zero omitted, Abs format (unit mm)*
G04 Created by KiCad (PCBNEW 7.0.1) date 2023-05-28 14:58:13*
%MOMM*%
%LPD*%
G01*
G04 APERTURE LIST*
%ADD10R,1.700000X1.700000*%
%ADD11O,1.700000X1.700000*%
%ADD12C,1.600000*%
%ADD13O,1.600000X1.600000*%
%ADD14R,2.000000X2.000000*%
%ADD15C,2.000000*%
G04 APERTURE END LIST*
D10*
%TO.C,J6*%
X199440000Y-81040000D03*
D11*
X199440000Y-78500000D03*
X199440000Y-75960000D03*
%TD*%
D12*
%TO.C,R4*%
X199200000Y-72180000D03*
D13*
X199200000Y-64560000D03*
%TD*%
D12*
%TO.C,TH1*%
X129640000Y-67150000D03*
D13*
X137260000Y-67150000D03*
%TD*%
D12*
%TO.C,R2*%
X130165000Y-89875000D03*
D13*
X137785000Y-89875000D03*
%TD*%
D10*
%TO.C,J7*%
X132850000Y-81000000D03*
D11*
X132850000Y-78460000D03*
%TD*%
D12*
%TO.C,R3*%
X137265000Y-74625000D03*
D13*
X129645000Y-74625000D03*
%TD*%
D10*
%TO.C,J1*%
X193000000Y-67025000D03*
D11*
X195540000Y-67025000D03*
X193000000Y-69565000D03*
X195540000Y-69565000D03*
X193000000Y-72105000D03*
X195540000Y-72105000D03*
X193000000Y-74645000D03*
X195540000Y-74645000D03*
X193000000Y-77185000D03*
X195540000Y-77185000D03*
X193000000Y-79725000D03*
X195540000Y-79725000D03*
X193000000Y-82265000D03*
X195540000Y-82265000D03*
X193000000Y-84805000D03*
X195540000Y-84805000D03*
X193000000Y-87345000D03*
X195540000Y-87345000D03*
X193000000Y-89885000D03*
X195540000Y-89885000D03*
X193000000Y-92425000D03*
X195540000Y-92425000D03*
X193000000Y-94965000D03*
X195540000Y-94965000D03*
X193000000Y-97505000D03*
X195540000Y-97505000D03*
X193000000Y-100045000D03*
X195540000Y-100045000D03*
X193000000Y-102585000D03*
X195540000Y-102585000D03*
X193000000Y-105125000D03*
X195540000Y-105125000D03*
X193000000Y-107665000D03*
X195540000Y-107665000D03*
X193000000Y-110205000D03*
X195540000Y-110205000D03*
X193000000Y-112745000D03*
X195540000Y-112745000D03*
X193000000Y-115285000D03*
X195540000Y-115285000D03*
X193000000Y-117825000D03*
X195540000Y-117825000D03*
X193000000Y-120365000D03*
X195540000Y-120365000D03*
X193000000Y-122905000D03*
X195540000Y-122905000D03*
X193000000Y-125445000D03*
X195540000Y-125445000D03*
X193000000Y-127985000D03*
X195540000Y-127985000D03*
%TD*%
D12*
%TO.C,R1*%
X137265000Y-70675000D03*
D13*
X129645000Y-70675000D03*
%TD*%
D10*
%TO.C,J8*%
X141335000Y-67090000D03*
D11*
X143875000Y-67090000D03*
X141335000Y-69630000D03*
X143875000Y-69630000D03*
X141335000Y-72170000D03*
X143875000Y-72170000D03*
X141335000Y-74710000D03*
X143875000Y-74710000D03*
X141335000Y-77250000D03*
X143875000Y-77250000D03*
X141335000Y-79790000D03*
X143875000Y-79790000D03*
X141335000Y-82330000D03*
X143875000Y-82330000D03*
X141335000Y-84870000D03*
X143875000Y-84870000D03*
X141335000Y-87410000D03*
X143875000Y-87410000D03*
X141335000Y-89950000D03*
X143875000Y-89950000D03*
X141335000Y-92490000D03*
X143875000Y-92490000D03*
X141335000Y-95030000D03*
X143875000Y-95030000D03*
X141335000Y-97570000D03*
X143875000Y-97570000D03*
X141335000Y-100110000D03*
X143875000Y-100110000D03*
X141335000Y-102650000D03*
X143875000Y-102650000D03*
X141335000Y-105190000D03*
X143875000Y-105190000D03*
X141335000Y-107730000D03*
X143875000Y-107730000D03*
X141335000Y-110270000D03*
X143875000Y-110270000D03*
X141335000Y-112810000D03*
X143875000Y-112810000D03*
X141335000Y-115350000D03*
X143875000Y-115350000D03*
X141335000Y-117890000D03*
X143875000Y-117890000D03*
X141335000Y-120430000D03*
X143875000Y-120430000D03*
X141335000Y-122970000D03*
X143875000Y-122970000D03*
X141335000Y-125510000D03*
X143875000Y-125510000D03*
X141335000Y-128050000D03*
X143875000Y-128050000D03*
%TD*%
D10*
%TO.C,J5*%
X137075000Y-78500000D03*
D11*
X137075000Y-81040000D03*
X137075000Y-83580000D03*
X137075000Y-86120000D03*
%TD*%
D14*
%TO.C,LS1*%
X136425000Y-98250000D03*
D15*
X128825000Y-98250000D03*
%TD*%
M02*
