%TF.GenerationSoftware,KiCad,Pcbnew,7.0.1*%
%TF.CreationDate,2023-05-28T14:58:13-06:00*%
%TF.ProjectId,Phase D,50686173-6520-4442-9e6b-696361645f70,rev?*%
%TF.SameCoordinates,Original*%
%TF.FileFunction,Copper,L2,Bot*%
%TF.FilePolarity,Positive*%
%FSLAX46Y46*%
G04 Gerber Fmt 4.6, Leading zero omitted, Abs format (unit mm)*
G04 Created by KiCad (PCBNEW 7.0.1) date 2023-05-28 14:58:13*
%MOMM*%
%LPD*%
G01*
G04 APERTURE LIST*
%TA.AperFunction,ComponentPad*%
%ADD10R,1.700000X1.700000*%
%TD*%
%TA.AperFunction,ComponentPad*%
%ADD11O,1.700000X1.700000*%
%TD*%
%TA.AperFunction,ComponentPad*%
%ADD12C,1.600000*%
%TD*%
%TA.AperFunction,ComponentPad*%
%ADD13O,1.600000X1.600000*%
%TD*%
%TA.AperFunction,ComponentPad*%
%ADD14R,2.000000X2.000000*%
%TD*%
%TA.AperFunction,ComponentPad*%
%ADD15C,2.000000*%
%TD*%
%TA.AperFunction,ViaPad*%
%ADD16C,0.600000*%
%TD*%
%TA.AperFunction,ViaPad*%
%ADD17C,0.800000*%
%TD*%
%TA.AperFunction,Conductor*%
%ADD18C,0.203200*%
%TD*%
G04 APERTURE END LIST*
D10*
%TO.P,J6,1,Pin_1*%
%TO.N,IR*%
X199440000Y-81040000D03*
D11*
%TO.P,J6,2,Pin_2*%
%TO.N,GND*%
X199440000Y-78500000D03*
%TO.P,J6,3,Pin_3*%
%TO.N,+5V*%
X199440000Y-75960000D03*
%TD*%
D12*
%TO.P,R4,1*%
%TO.N,+3.3V*%
X199200000Y-72180000D03*
D13*
%TO.P,R4,2*%
%TO.N,GND*%
X199200000Y-64560000D03*
%TD*%
D12*
%TO.P,TH1,1*%
%TO.N,+3.3V*%
X129640000Y-67150000D03*
D13*
%TO.P,TH1,2*%
%TO.N,Therm*%
X137260000Y-67150000D03*
%TD*%
D12*
%TO.P,R2,1*%
%TO.N,GND*%
X130165000Y-89875000D03*
D13*
%TO.P,R2,2*%
X137785000Y-89875000D03*
%TD*%
D10*
%TO.P,J7,1,Pin_1*%
%TO.N,+3.3V*%
X132850000Y-81000000D03*
D11*
%TO.P,J7,2,Pin_2*%
%TO.N,P_Sen*%
X132850000Y-78460000D03*
%TD*%
D12*
%TO.P,R3,1*%
%TO.N,P_Sen*%
X137265000Y-74625000D03*
D13*
%TO.P,R3,2*%
%TO.N,GND*%
X129645000Y-74625000D03*
%TD*%
D10*
%TO.P,J1,1,Pin_1*%
%TO.N,GND*%
X193000000Y-67025000D03*
D11*
%TO.P,J1,2,Pin_2*%
X195540000Y-67025000D03*
%TO.P,J1,3,Pin_3*%
%TO.N,+5V*%
X193000000Y-69565000D03*
%TO.P,J1,4,Pin_4*%
X195540000Y-69565000D03*
%TO.P,J1,5,Pin_5*%
%TO.N,+3.3V*%
X193000000Y-72105000D03*
%TO.P,J1,6,Pin_6*%
X195540000Y-72105000D03*
%TO.P,J1,7,Pin_7*%
%TO.N,unconnected-(J1-Pin_7-Pad7)*%
X193000000Y-74645000D03*
%TO.P,J1,8,Pin_8*%
%TO.N,unconnected-(J1-Pin_8-Pad8)*%
X195540000Y-74645000D03*
%TO.P,J1,9,Pin_9*%
%TO.N,unconnected-(J1-Pin_9-Pad9)*%
X193000000Y-77185000D03*
%TO.P,J1,10,Pin_10*%
%TO.N,unconnected-(J1-Pin_10-Pad10)*%
X195540000Y-77185000D03*
%TO.P,J1,11,Pin_11*%
%TO.N,unconnected-(J1-Pin_11-Pad11)*%
X193000000Y-79725000D03*
%TO.P,J1,12,Pin_12*%
%TO.N,unconnected-(J1-Pin_12-Pad12)*%
X195540000Y-79725000D03*
%TO.P,J1,13,Pin_13*%
%TO.N,unconnected-(J1-Pin_13-Pad13)*%
X193000000Y-82265000D03*
%TO.P,J1,14,Pin_14*%
%TO.N,unconnected-(J1-Pin_14-Pad14)*%
X195540000Y-82265000D03*
%TO.P,J1,15,Pin_15*%
%TO.N,unconnected-(J1-Pin_15-Pad15)*%
X193000000Y-84805000D03*
%TO.P,J1,16,Pin_16*%
%TO.N,unconnected-(J1-Pin_16-Pad16)*%
X195540000Y-84805000D03*
%TO.P,J1,17,Pin_17*%
%TO.N,unconnected-(J1-Pin_17-Pad17)*%
X193000000Y-87345000D03*
%TO.P,J1,18,Pin_18*%
%TO.N,unconnected-(J1-Pin_18-Pad18)*%
X195540000Y-87345000D03*
%TO.P,J1,19,Pin_19*%
%TO.N,unconnected-(J1-Pin_19-Pad19)*%
X193000000Y-89885000D03*
%TO.P,J1,20,Pin_20*%
%TO.N,unconnected-(J1-Pin_20-Pad20)*%
X195540000Y-89885000D03*
%TO.P,J1,21,Pin_21*%
%TO.N,unconnected-(J1-Pin_21-Pad21)*%
X193000000Y-92425000D03*
%TO.P,J1,22,Pin_22*%
%TO.N,unconnected-(J1-Pin_22-Pad22)*%
X195540000Y-92425000D03*
%TO.P,J1,23,Pin_23*%
%TO.N,unconnected-(J1-Pin_23-Pad23)*%
X193000000Y-94965000D03*
%TO.P,J1,24,Pin_24*%
%TO.N,unconnected-(J1-Pin_24-Pad24)*%
X195540000Y-94965000D03*
%TO.P,J1,25,Pin_25*%
%TO.N,unconnected-(J1-Pin_25-Pad25)*%
X193000000Y-97505000D03*
%TO.P,J1,26,Pin_26*%
%TO.N,unconnected-(J1-Pin_26-Pad26)*%
X195540000Y-97505000D03*
%TO.P,J1,27,Pin_27*%
%TO.N,unconnected-(J1-Pin_27-Pad27)*%
X193000000Y-100045000D03*
%TO.P,J1,28,Pin_28*%
%TO.N,unconnected-(J1-Pin_28-Pad28)*%
X195540000Y-100045000D03*
%TO.P,J1,29,Pin_29*%
%TO.N,unconnected-(J1-Pin_29-Pad29)*%
X193000000Y-102585000D03*
%TO.P,J1,30,Pin_30*%
%TO.N,unconnected-(J1-Pin_30-Pad30)*%
X195540000Y-102585000D03*
%TO.P,J1,31,Pin_31*%
%TO.N,unconnected-(J1-Pin_31-Pad31)*%
X193000000Y-105125000D03*
%TO.P,J1,32,Pin_32*%
%TO.N,unconnected-(J1-Pin_32-Pad32)*%
X195540000Y-105125000D03*
%TO.P,J1,33,Pin_33*%
%TO.N,unconnected-(J1-Pin_33-Pad33)*%
X193000000Y-107665000D03*
%TO.P,J1,34,Pin_34*%
%TO.N,unconnected-(J1-Pin_34-Pad34)*%
X195540000Y-107665000D03*
%TO.P,J1,35,Pin_35*%
%TO.N,unconnected-(J1-Pin_35-Pad35)*%
X193000000Y-110205000D03*
%TO.P,J1,36,Pin_36*%
%TO.N,unconnected-(J1-Pin_36-Pad36)*%
X195540000Y-110205000D03*
%TO.P,J1,37,Pin_37*%
%TO.N,unconnected-(J1-Pin_37-Pad37)*%
X193000000Y-112745000D03*
%TO.P,J1,38,Pin_38*%
%TO.N,unconnected-(J1-Pin_38-Pad38)*%
X195540000Y-112745000D03*
%TO.P,J1,39,Pin_39*%
%TO.N,unconnected-(J1-Pin_39-Pad39)*%
X193000000Y-115285000D03*
%TO.P,J1,40,Pin_40*%
%TO.N,unconnected-(J1-Pin_40-Pad40)*%
X195540000Y-115285000D03*
%TO.P,J1,41,Pin_41*%
%TO.N,unconnected-(J1-Pin_41-Pad41)*%
X193000000Y-117825000D03*
%TO.P,J1,42,Pin_42*%
%TO.N,unconnected-(J1-Pin_42-Pad42)*%
X195540000Y-117825000D03*
%TO.P,J1,43,Pin_43*%
%TO.N,unconnected-(J1-Pin_43-Pad43)*%
X193000000Y-120365000D03*
%TO.P,J1,44,Pin_44*%
%TO.N,unconnected-(J1-Pin_44-Pad44)*%
X195540000Y-120365000D03*
%TO.P,J1,45,Pin_45*%
%TO.N,unconnected-(J1-Pin_45-Pad45)*%
X193000000Y-122905000D03*
%TO.P,J1,46,Pin_46*%
%TO.N,unconnected-(J1-Pin_46-Pad46)*%
X195540000Y-122905000D03*
%TO.P,J1,47,Pin_47*%
%TO.N,unconnected-(J1-Pin_47-Pad47)*%
X193000000Y-125445000D03*
%TO.P,J1,48,Pin_48*%
%TO.N,unconnected-(J1-Pin_48-Pad48)*%
X195540000Y-125445000D03*
%TO.P,J1,49,Pin_49*%
%TO.N,GND*%
X193000000Y-127985000D03*
%TO.P,J1,50,Pin_50*%
X195540000Y-127985000D03*
%TD*%
D12*
%TO.P,R1,1*%
%TO.N,Therm*%
X137265000Y-70675000D03*
D13*
%TO.P,R1,2*%
%TO.N,GND*%
X129645000Y-70675000D03*
%TD*%
D10*
%TO.P,J8,1,Pin_1*%
%TO.N,GND*%
X141335000Y-67090000D03*
D11*
%TO.P,J8,2,Pin_2*%
X143875000Y-67090000D03*
%TO.P,J8,3,Pin_3*%
%TO.N,unconnected-(J8-Pin_3-Pad3)*%
X141335000Y-69630000D03*
%TO.P,J8,4,Pin_4*%
%TO.N,unconnected-(J8-Pin_4-Pad4)*%
X143875000Y-69630000D03*
%TO.P,J8,5,Pin_5*%
%TO.N,GND*%
X141335000Y-72170000D03*
%TO.P,J8,6,Pin_6*%
%TO.N,unconnected-(J8-Pin_6-Pad6)*%
X143875000Y-72170000D03*
%TO.P,J8,7,Pin_7*%
%TO.N,P_Sen*%
X141335000Y-74710000D03*
%TO.P,J8,8,Pin_8*%
%TO.N,unconnected-(J8-Pin_8-Pad8)*%
X143875000Y-74710000D03*
%TO.P,J8,9,Pin_9*%
%TO.N,unconnected-(J8-Pin_9-Pad9)*%
X141335000Y-77250000D03*
%TO.P,J8,10,Pin_10*%
%TO.N,Therm*%
X143875000Y-77250000D03*
%TO.P,J8,11,Pin_11*%
%TO.N,Echo*%
X141335000Y-79790000D03*
%TO.P,J8,12,Pin_12*%
%TO.N,unconnected-(J8-Pin_12-Pad12)*%
X143875000Y-79790000D03*
%TO.P,J8,13,Pin_13*%
%TO.N,Trig*%
X141335000Y-82330000D03*
%TO.P,J8,14,Pin_14*%
%TO.N,IR*%
X143875000Y-82330000D03*
%TO.P,J8,15,Pin_15*%
%TO.N,unconnected-(J8-Pin_15-Pad15)*%
X141335000Y-84870000D03*
%TO.P,J8,16,Pin_16*%
%TO.N,unconnected-(J8-Pin_16-Pad16)*%
X143875000Y-84870000D03*
%TO.P,J8,17,Pin_17*%
%TO.N,unconnected-(J8-Pin_17-Pad17)*%
X141335000Y-87410000D03*
%TO.P,J8,18,Pin_18*%
%TO.N,unconnected-(J8-Pin_18-Pad18)*%
X143875000Y-87410000D03*
%TO.P,J8,19,Pin_19*%
%TO.N,unconnected-(J8-Pin_19-Pad19)*%
X141335000Y-89950000D03*
%TO.P,J8,20,Pin_20*%
%TO.N,unconnected-(J8-Pin_20-Pad20)*%
X143875000Y-89950000D03*
%TO.P,J8,21,Pin_21*%
%TO.N,Buzz*%
X141335000Y-92490000D03*
%TO.P,J8,22,Pin_22*%
%TO.N,unconnected-(J8-Pin_22-Pad22)*%
X143875000Y-92490000D03*
%TO.P,J8,23,Pin_23*%
%TO.N,unconnected-(J8-Pin_23-Pad23)*%
X141335000Y-95030000D03*
%TO.P,J8,24,Pin_24*%
%TO.N,unconnected-(J8-Pin_24-Pad24)*%
X143875000Y-95030000D03*
%TO.P,J8,25,Pin_25*%
%TO.N,unconnected-(J8-Pin_25-Pad25)*%
X141335000Y-97570000D03*
%TO.P,J8,26,Pin_26*%
%TO.N,unconnected-(J8-Pin_26-Pad26)*%
X143875000Y-97570000D03*
%TO.P,J8,27,Pin_27*%
%TO.N,unconnected-(J8-Pin_27-Pad27)*%
X141335000Y-100110000D03*
%TO.P,J8,28,Pin_28*%
%TO.N,unconnected-(J8-Pin_28-Pad28)*%
X143875000Y-100110000D03*
%TO.P,J8,29,Pin_29*%
%TO.N,unconnected-(J8-Pin_29-Pad29)*%
X141335000Y-102650000D03*
%TO.P,J8,30,Pin_30*%
%TO.N,unconnected-(J8-Pin_30-Pad30)*%
X143875000Y-102650000D03*
%TO.P,J8,31,Pin_31*%
%TO.N,unconnected-(J8-Pin_31-Pad31)*%
X141335000Y-105190000D03*
%TO.P,J8,32,Pin_32*%
%TO.N,unconnected-(J8-Pin_32-Pad32)*%
X143875000Y-105190000D03*
%TO.P,J8,33,Pin_33*%
%TO.N,unconnected-(J8-Pin_33-Pad33)*%
X141335000Y-107730000D03*
%TO.P,J8,34,Pin_34*%
%TO.N,unconnected-(J8-Pin_34-Pad34)*%
X143875000Y-107730000D03*
%TO.P,J8,35,Pin_35*%
%TO.N,unconnected-(J8-Pin_35-Pad35)*%
X141335000Y-110270000D03*
%TO.P,J8,36,Pin_36*%
%TO.N,unconnected-(J8-Pin_36-Pad36)*%
X143875000Y-110270000D03*
%TO.P,J8,37,Pin_37*%
%TO.N,unconnected-(J8-Pin_37-Pad37)*%
X141335000Y-112810000D03*
%TO.P,J8,38,Pin_38*%
%TO.N,unconnected-(J8-Pin_38-Pad38)*%
X143875000Y-112810000D03*
%TO.P,J8,39,Pin_39*%
%TO.N,unconnected-(J8-Pin_39-Pad39)*%
X141335000Y-115350000D03*
%TO.P,J8,40,Pin_40*%
%TO.N,unconnected-(J8-Pin_40-Pad40)*%
X143875000Y-115350000D03*
%TO.P,J8,41,Pin_41*%
%TO.N,unconnected-(J8-Pin_41-Pad41)*%
X141335000Y-117890000D03*
%TO.P,J8,42,Pin_42*%
%TO.N,unconnected-(J8-Pin_42-Pad42)*%
X143875000Y-117890000D03*
%TO.P,J8,43,Pin_43*%
%TO.N,unconnected-(J8-Pin_43-Pad43)*%
X141335000Y-120430000D03*
%TO.P,J8,44,Pin_44*%
%TO.N,unconnected-(J8-Pin_44-Pad44)*%
X143875000Y-120430000D03*
%TO.P,J8,45,Pin_45*%
%TO.N,unconnected-(J8-Pin_45-Pad45)*%
X141335000Y-122970000D03*
%TO.P,J8,46,Pin_46*%
%TO.N,unconnected-(J8-Pin_46-Pad46)*%
X143875000Y-122970000D03*
%TO.P,J8,47,Pin_47*%
%TO.N,unconnected-(J8-Pin_47-Pad47)*%
X141335000Y-125510000D03*
%TO.P,J8,48,Pin_48*%
%TO.N,unconnected-(J8-Pin_48-Pad48)*%
X143875000Y-125510000D03*
%TO.P,J8,49,Pin_49*%
%TO.N,GND*%
X141335000Y-128050000D03*
%TO.P,J8,50,Pin_50*%
X143875000Y-128050000D03*
%TD*%
D10*
%TO.P,J5,1,Pin_1*%
%TO.N,+5V*%
X137075000Y-78500000D03*
D11*
%TO.P,J5,2,Pin_2*%
%TO.N,Echo*%
X137075000Y-81040000D03*
%TO.P,J5,3,Pin_3*%
%TO.N,Trig*%
X137075000Y-83580000D03*
%TO.P,J5,4,Pin_4*%
%TO.N,GND*%
X137075000Y-86120000D03*
%TD*%
D14*
%TO.P,LS1,1,1*%
%TO.N,Buzz*%
X136425000Y-98250000D03*
D15*
%TO.P,LS1,2,2*%
%TO.N,GND*%
X128825000Y-98250000D03*
%TD*%
D16*
%TO.N,GND*%
X139475000Y-128050000D03*
X195600000Y-65275000D03*
X199200000Y-66200000D03*
X197400000Y-127985000D03*
X128000000Y-74600000D03*
X126850000Y-98275000D03*
X137050000Y-87950000D03*
X201150000Y-78525000D03*
X139575000Y-66975000D03*
X137775000Y-88300000D03*
X128050000Y-70650000D03*
X130150000Y-88050000D03*
X145650000Y-66975000D03*
X139700000Y-71675000D03*
X145650000Y-128050000D03*
X193000000Y-65325000D03*
X191262500Y-128012500D03*
D17*
%TO.N,+3.3V*%
X194392557Y-73517558D03*
%TD*%
D18*
%TO.N,+3.3V*%
X194392557Y-73517558D02*
X193000000Y-72125001D01*
X193000000Y-72125001D02*
X193000000Y-72105000D01*
%TD*%
%TA.AperFunction,Conductor*%
%TO.N,GND*%
G36*
X199049658Y-63040723D02*
G01*
X199094765Y-63083903D01*
X199113108Y-63143591D01*
X199100036Y-63204651D01*
X199058864Y-63251599D01*
X199000033Y-63272528D01*
X198973397Y-63274858D01*
X198753673Y-63333733D01*
X198547519Y-63429865D01*
X198361180Y-63560341D01*
X198200341Y-63721180D01*
X198069865Y-63907519D01*
X197973733Y-64113673D01*
X197921128Y-64309999D01*
X197921128Y-64310000D01*
X200478872Y-64310000D01*
X200478871Y-64309999D01*
X200426266Y-64113673D01*
X200330134Y-63907519D01*
X200199658Y-63721180D01*
X200038819Y-63560341D01*
X199852480Y-63429865D01*
X199646326Y-63333733D01*
X199426602Y-63274858D01*
X199399967Y-63272528D01*
X199341136Y-63251599D01*
X199299964Y-63204651D01*
X199286892Y-63143591D01*
X199305235Y-63083903D01*
X199350342Y-63040723D01*
X199410774Y-63025000D01*
X204651000Y-63025000D01*
X204713000Y-63041613D01*
X204758387Y-63087000D01*
X204775000Y-63149000D01*
X204775000Y-130726000D01*
X204758387Y-130788000D01*
X204713000Y-130833387D01*
X204651000Y-130850000D01*
X123674500Y-130850000D01*
X123612500Y-130833387D01*
X123567113Y-130788000D01*
X123550500Y-130726000D01*
X123550500Y-128300000D01*
X140004364Y-128300000D01*
X140061569Y-128513492D01*
X140161399Y-128727576D01*
X140296893Y-128921081D01*
X140463918Y-129088106D01*
X140657423Y-129223600D01*
X140871507Y-129323430D01*
X141084999Y-129380635D01*
X141085000Y-129380636D01*
X141085000Y-128300000D01*
X141585000Y-128300000D01*
X141585000Y-129380635D01*
X141798492Y-129323430D01*
X142012576Y-129223600D01*
X142206081Y-129088106D01*
X142373106Y-128921081D01*
X142503425Y-128734968D01*
X142547743Y-128696103D01*
X142605000Y-128682092D01*
X142662257Y-128696103D01*
X142706575Y-128734968D01*
X142836893Y-128921081D01*
X143003918Y-129088106D01*
X143197423Y-129223600D01*
X143411507Y-129323430D01*
X143624999Y-129380635D01*
X143625000Y-129380636D01*
X143625000Y-128300000D01*
X144125000Y-128300000D01*
X144125000Y-129380635D01*
X144338492Y-129323430D01*
X144552576Y-129223600D01*
X144746081Y-129088106D01*
X144913106Y-128921081D01*
X145048600Y-128727576D01*
X145148430Y-128513492D01*
X145205636Y-128300000D01*
X144125000Y-128300000D01*
X143625000Y-128300000D01*
X141585000Y-128300000D01*
X141085000Y-128300000D01*
X140004364Y-128300000D01*
X123550500Y-128300000D01*
X123550500Y-128235000D01*
X191669364Y-128235000D01*
X191726569Y-128448492D01*
X191826399Y-128662576D01*
X191961893Y-128856081D01*
X192128918Y-129023106D01*
X192322423Y-129158600D01*
X192536507Y-129258430D01*
X192749999Y-129315635D01*
X192750000Y-129315636D01*
X192750000Y-128235000D01*
X193250000Y-128235000D01*
X193250000Y-129315635D01*
X193463492Y-129258430D01*
X193677576Y-129158600D01*
X193871081Y-129023106D01*
X194038106Y-128856081D01*
X194168425Y-128669968D01*
X194212743Y-128631103D01*
X194270000Y-128617092D01*
X194327257Y-128631103D01*
X194371575Y-128669968D01*
X194501893Y-128856081D01*
X194668918Y-129023106D01*
X194862423Y-129158600D01*
X195076507Y-129258430D01*
X195289999Y-129315635D01*
X195290000Y-129315636D01*
X195290000Y-128235000D01*
X195790000Y-128235000D01*
X195790000Y-129315635D01*
X196003492Y-129258430D01*
X196217576Y-129158600D01*
X196411081Y-129023106D01*
X196578106Y-128856081D01*
X196713600Y-128662576D01*
X196813430Y-128448492D01*
X196870636Y-128235000D01*
X195790000Y-128235000D01*
X195290000Y-128235000D01*
X193250000Y-128235000D01*
X192750000Y-128235000D01*
X191669364Y-128235000D01*
X123550500Y-128235000D01*
X123550500Y-125510000D01*
X139979340Y-125510000D01*
X139999936Y-125745407D01*
X140044709Y-125912502D01*
X140061097Y-125973663D01*
X140160965Y-126187830D01*
X140296505Y-126381401D01*
X140463599Y-126548495D01*
X140649597Y-126678732D01*
X140688460Y-126723048D01*
X140702471Y-126780305D01*
X140688461Y-126837561D01*
X140649595Y-126881880D01*
X140463919Y-127011892D01*
X140296890Y-127178921D01*
X140161400Y-127372421D01*
X140061569Y-127586507D01*
X140004364Y-127799999D01*
X140004364Y-127800000D01*
X145205636Y-127800000D01*
X145205635Y-127799999D01*
X145148430Y-127586507D01*
X145048599Y-127372421D01*
X144913109Y-127178921D01*
X144746081Y-127011893D01*
X144560404Y-126881880D01*
X144521539Y-126837562D01*
X144507528Y-126780305D01*
X144521539Y-126723048D01*
X144560402Y-126678732D01*
X144746401Y-126548495D01*
X144913495Y-126381401D01*
X145049035Y-126187830D01*
X145148903Y-125973663D01*
X145210063Y-125745408D01*
X145230659Y-125510000D01*
X145224972Y-125444999D01*
X191644340Y-125444999D01*
X191664936Y-125680407D01*
X191682353Y-125745407D01*
X191726097Y-125908663D01*
X191825965Y-126122830D01*
X191961505Y-126316401D01*
X192128599Y-126483495D01*
X192314597Y-126613732D01*
X192353460Y-126658048D01*
X192367471Y-126715305D01*
X192353461Y-126772561D01*
X192314595Y-126816880D01*
X192128919Y-126946892D01*
X191961890Y-127113921D01*
X191826400Y-127307421D01*
X191726569Y-127521507D01*
X191669364Y-127734999D01*
X191669364Y-127735000D01*
X196870636Y-127735000D01*
X196870635Y-127734999D01*
X196813430Y-127521507D01*
X196713599Y-127307421D01*
X196578109Y-127113921D01*
X196411081Y-126946893D01*
X196225404Y-126816880D01*
X196186539Y-126772562D01*
X196172528Y-126715305D01*
X196186539Y-126658048D01*
X196225402Y-126613732D01*
X196411401Y-126483495D01*
X196578495Y-126316401D01*
X196714035Y-126122830D01*
X196813903Y-125908663D01*
X196875063Y-125680408D01*
X196895659Y-125445000D01*
X196875063Y-125209592D01*
X196813903Y-124981337D01*
X196714035Y-124767171D01*
X196578495Y-124573599D01*
X196411401Y-124406505D01*
X196225839Y-124276573D01*
X196186975Y-124232257D01*
X196172964Y-124175000D01*
X196186975Y-124117743D01*
X196225839Y-124073426D01*
X196411401Y-123943495D01*
X196578495Y-123776401D01*
X196714035Y-123582830D01*
X196813903Y-123368663D01*
X196875063Y-123140408D01*
X196895659Y-122905000D01*
X196875063Y-122669592D01*
X196813903Y-122441337D01*
X196714035Y-122227171D01*
X196578495Y-122033599D01*
X196411401Y-121866505D01*
X196225839Y-121736573D01*
X196186975Y-121692257D01*
X196172964Y-121635000D01*
X196186975Y-121577743D01*
X196225839Y-121533426D01*
X196411401Y-121403495D01*
X196578495Y-121236401D01*
X196714035Y-121042830D01*
X196813903Y-120828663D01*
X196875063Y-120600408D01*
X196895659Y-120365000D01*
X196875063Y-120129592D01*
X196813903Y-119901337D01*
X196714035Y-119687171D01*
X196578495Y-119493599D01*
X196411401Y-119326505D01*
X196225839Y-119196573D01*
X196186975Y-119152257D01*
X196172964Y-119095000D01*
X196186975Y-119037743D01*
X196225839Y-118993426D01*
X196411401Y-118863495D01*
X196578495Y-118696401D01*
X196714035Y-118502830D01*
X196813903Y-118288663D01*
X196875063Y-118060408D01*
X196895659Y-117825000D01*
X196875063Y-117589592D01*
X196813903Y-117361337D01*
X196714035Y-117147171D01*
X196578495Y-116953599D01*
X196411401Y-116786505D01*
X196225839Y-116656573D01*
X196186976Y-116612257D01*
X196172965Y-116555000D01*
X196186976Y-116497743D01*
X196225839Y-116453426D01*
X196411401Y-116323495D01*
X196578495Y-116156401D01*
X196714035Y-115962830D01*
X196813903Y-115748663D01*
X196875063Y-115520408D01*
X196895659Y-115285000D01*
X196875063Y-115049592D01*
X196813903Y-114821337D01*
X196714035Y-114607171D01*
X196578495Y-114413599D01*
X196411401Y-114246505D01*
X196225839Y-114116573D01*
X196186975Y-114072257D01*
X196172964Y-114015000D01*
X196186975Y-113957743D01*
X196225839Y-113913426D01*
X196411401Y-113783495D01*
X196578495Y-113616401D01*
X196714035Y-113422830D01*
X196813903Y-113208663D01*
X196875063Y-112980408D01*
X196895659Y-112745000D01*
X196875063Y-112509592D01*
X196813903Y-112281337D01*
X196714035Y-112067171D01*
X196578495Y-111873599D01*
X196411401Y-111706505D01*
X196225839Y-111576573D01*
X196186974Y-111532255D01*
X196172964Y-111474999D01*
X196186975Y-111417742D01*
X196225837Y-111373428D01*
X196411401Y-111243495D01*
X196578495Y-111076401D01*
X196714035Y-110882830D01*
X196813903Y-110668663D01*
X196875063Y-110440408D01*
X196895659Y-110205000D01*
X196875063Y-109969592D01*
X196813903Y-109741337D01*
X196714035Y-109527171D01*
X196578495Y-109333599D01*
X196411401Y-109166505D01*
X196225839Y-109036573D01*
X196186974Y-108992255D01*
X196172964Y-108934999D01*
X196186975Y-108877742D01*
X196225837Y-108833428D01*
X196411401Y-108703495D01*
X196578495Y-108536401D01*
X196714035Y-108342830D01*
X196813903Y-108128663D01*
X196875063Y-107900408D01*
X196895659Y-107665000D01*
X196875063Y-107429592D01*
X196813903Y-107201337D01*
X196714035Y-106987171D01*
X196578495Y-106793599D01*
X196411401Y-106626505D01*
X196225839Y-106496573D01*
X196186974Y-106452255D01*
X196172964Y-106394999D01*
X196186975Y-106337742D01*
X196225837Y-106293428D01*
X196411401Y-106163495D01*
X196578495Y-105996401D01*
X196714035Y-105802830D01*
X196813903Y-105588663D01*
X196875063Y-105360408D01*
X196895659Y-105125000D01*
X196875063Y-104889592D01*
X196813903Y-104661337D01*
X196714035Y-104447171D01*
X196578495Y-104253599D01*
X196411401Y-104086505D01*
X196225839Y-103956573D01*
X196186975Y-103912257D01*
X196172964Y-103855000D01*
X196186975Y-103797743D01*
X196225839Y-103753426D01*
X196411401Y-103623495D01*
X196578495Y-103456401D01*
X196714035Y-103262830D01*
X196813903Y-103048663D01*
X196875063Y-102820408D01*
X196895659Y-102585000D01*
X196875063Y-102349592D01*
X196813903Y-102121337D01*
X196714035Y-101907171D01*
X196578495Y-101713599D01*
X196411401Y-101546505D01*
X196225839Y-101416573D01*
X196186976Y-101372257D01*
X196172965Y-101315000D01*
X196186976Y-101257743D01*
X196225839Y-101213426D01*
X196411401Y-101083495D01*
X196578495Y-100916401D01*
X196714035Y-100722830D01*
X196813903Y-100508663D01*
X196875063Y-100280408D01*
X196895659Y-100045000D01*
X196875063Y-99809592D01*
X196813903Y-99581337D01*
X196714035Y-99367171D01*
X196578495Y-99173599D01*
X196411401Y-99006505D01*
X196225839Y-98876573D01*
X196186975Y-98832257D01*
X196172964Y-98775000D01*
X196186975Y-98717743D01*
X196225839Y-98673426D01*
X196411401Y-98543495D01*
X196578495Y-98376401D01*
X196714035Y-98182830D01*
X196813903Y-97968663D01*
X196875063Y-97740408D01*
X196895659Y-97505000D01*
X196875063Y-97269592D01*
X196813903Y-97041337D01*
X196714035Y-96827171D01*
X196578495Y-96633599D01*
X196411401Y-96466505D01*
X196225839Y-96336573D01*
X196186975Y-96292257D01*
X196172964Y-96235000D01*
X196186975Y-96177743D01*
X196225839Y-96133426D01*
X196411401Y-96003495D01*
X196578495Y-95836401D01*
X196714035Y-95642830D01*
X196813903Y-95428663D01*
X196875063Y-95200408D01*
X196895659Y-94965000D01*
X196875063Y-94729592D01*
X196813903Y-94501337D01*
X196714035Y-94287171D01*
X196578495Y-94093599D01*
X196411401Y-93926505D01*
X196225839Y-93796573D01*
X196186975Y-93752257D01*
X196172964Y-93695000D01*
X196186975Y-93637743D01*
X196225839Y-93593426D01*
X196411401Y-93463495D01*
X196578495Y-93296401D01*
X196714035Y-93102830D01*
X196813903Y-92888663D01*
X196875063Y-92660408D01*
X196895659Y-92425000D01*
X196875063Y-92189592D01*
X196813903Y-91961337D01*
X196714035Y-91747171D01*
X196578495Y-91553599D01*
X196411401Y-91386505D01*
X196225839Y-91256573D01*
X196186975Y-91212257D01*
X196172964Y-91155000D01*
X196186975Y-91097743D01*
X196225839Y-91053426D01*
X196411401Y-90923495D01*
X196578495Y-90756401D01*
X196714035Y-90562830D01*
X196813903Y-90348663D01*
X196875063Y-90120408D01*
X196895659Y-89885000D01*
X196875063Y-89649592D01*
X196813903Y-89421337D01*
X196714035Y-89207171D01*
X196578495Y-89013599D01*
X196411401Y-88846505D01*
X196225839Y-88716573D01*
X196186975Y-88672257D01*
X196172964Y-88615000D01*
X196186975Y-88557743D01*
X196225839Y-88513426D01*
X196411401Y-88383495D01*
X196578495Y-88216401D01*
X196714035Y-88022830D01*
X196813903Y-87808663D01*
X196875063Y-87580408D01*
X196895659Y-87345000D01*
X196875063Y-87109592D01*
X196813903Y-86881337D01*
X196714035Y-86667171D01*
X196578495Y-86473599D01*
X196411401Y-86306505D01*
X196225839Y-86176573D01*
X196186975Y-86132257D01*
X196172964Y-86075000D01*
X196186975Y-86017743D01*
X196225839Y-85973426D01*
X196411401Y-85843495D01*
X196578495Y-85676401D01*
X196714035Y-85482830D01*
X196813903Y-85268663D01*
X196875063Y-85040408D01*
X196895659Y-84805000D01*
X196875063Y-84569592D01*
X196813903Y-84341337D01*
X196714035Y-84127171D01*
X196578495Y-83933599D01*
X196411401Y-83766505D01*
X196225839Y-83636573D01*
X196186976Y-83592257D01*
X196172965Y-83535000D01*
X196186976Y-83477743D01*
X196225839Y-83433426D01*
X196411401Y-83303495D01*
X196578495Y-83136401D01*
X196714035Y-82942830D01*
X196813903Y-82728663D01*
X196875063Y-82500408D01*
X196895659Y-82265000D01*
X196875063Y-82029592D01*
X196850486Y-81937869D01*
X198089500Y-81937869D01*
X198091609Y-81957483D01*
X198095909Y-81997483D01*
X198146204Y-82132331D01*
X198232454Y-82247546D01*
X198347669Y-82333796D01*
X198482517Y-82384091D01*
X198542127Y-82390500D01*
X200337872Y-82390499D01*
X200397483Y-82384091D01*
X200532331Y-82333796D01*
X200647546Y-82247546D01*
X200733796Y-82132331D01*
X200784091Y-81997483D01*
X200790500Y-81937873D01*
X200790499Y-80142128D01*
X200784091Y-80082517D01*
X200733796Y-79947669D01*
X200647546Y-79832454D01*
X200532331Y-79746204D01*
X200400399Y-79696996D01*
X200350021Y-79662018D01*
X200322568Y-79607173D01*
X200324757Y-79545880D01*
X200356053Y-79493133D01*
X200478109Y-79371077D01*
X200613600Y-79177576D01*
X200713430Y-78963492D01*
X200770636Y-78750000D01*
X198109364Y-78750000D01*
X198166569Y-78963492D01*
X198266399Y-79177576D01*
X198401893Y-79371081D01*
X198523946Y-79493134D01*
X198555242Y-79545880D01*
X198557431Y-79607173D01*
X198529978Y-79662018D01*
X198479599Y-79696997D01*
X198347669Y-79746204D01*
X198232454Y-79832454D01*
X198146204Y-79947668D01*
X198095909Y-80082516D01*
X198089500Y-80142130D01*
X198089500Y-81937869D01*
X196850486Y-81937869D01*
X196813903Y-81801337D01*
X196714035Y-81587171D01*
X196578495Y-81393599D01*
X196411401Y-81226505D01*
X196225839Y-81096573D01*
X196186974Y-81052255D01*
X196172964Y-80994999D01*
X196186975Y-80937742D01*
X196225837Y-80893428D01*
X196411401Y-80763495D01*
X196578495Y-80596401D01*
X196714035Y-80402830D01*
X196813903Y-80188663D01*
X196875063Y-79960408D01*
X196895659Y-79725000D01*
X196889053Y-79649500D01*
X196875063Y-79489592D01*
X196866460Y-79457484D01*
X196813903Y-79261337D01*
X196714035Y-79047171D01*
X196578495Y-78853599D01*
X196411401Y-78686505D01*
X196225839Y-78556573D01*
X196186975Y-78512257D01*
X196172964Y-78455000D01*
X196186975Y-78397743D01*
X196225839Y-78353426D01*
X196411401Y-78223495D01*
X196578495Y-78056401D01*
X196714035Y-77862830D01*
X196813903Y-77648663D01*
X196875063Y-77420408D01*
X196895659Y-77185000D01*
X196875063Y-76949592D01*
X196813903Y-76721337D01*
X196714035Y-76507171D01*
X196578495Y-76313599D01*
X196411401Y-76146505D01*
X196225839Y-76016573D01*
X196186975Y-75972257D01*
X196183975Y-75959999D01*
X198084340Y-75959999D01*
X198104936Y-76195407D01*
X198136606Y-76313599D01*
X198166097Y-76423663D01*
X198265965Y-76637830D01*
X198401505Y-76831401D01*
X198568599Y-76998495D01*
X198754597Y-77128732D01*
X198793460Y-77173048D01*
X198807471Y-77230305D01*
X198793461Y-77287561D01*
X198754595Y-77331880D01*
X198568919Y-77461892D01*
X198401890Y-77628921D01*
X198266400Y-77822421D01*
X198166569Y-78036507D01*
X198109364Y-78249999D01*
X198109364Y-78250000D01*
X200770636Y-78250000D01*
X200770635Y-78249999D01*
X200713430Y-78036507D01*
X200613599Y-77822421D01*
X200478109Y-77628921D01*
X200311081Y-77461893D01*
X200125404Y-77331880D01*
X200086539Y-77287562D01*
X200072528Y-77230305D01*
X200086539Y-77173048D01*
X200125402Y-77128732D01*
X200311401Y-76998495D01*
X200478495Y-76831401D01*
X200614035Y-76637830D01*
X200713903Y-76423663D01*
X200775063Y-76195408D01*
X200795659Y-75960000D01*
X200786712Y-75857743D01*
X200775063Y-75724592D01*
X200736696Y-75581404D01*
X200713903Y-75496337D01*
X200614035Y-75282171D01*
X200478495Y-75088599D01*
X200311401Y-74921505D01*
X200117830Y-74785965D01*
X199903663Y-74686097D01*
X199842501Y-74669709D01*
X199675407Y-74624936D01*
X199440000Y-74604340D01*
X199204592Y-74624936D01*
X198976336Y-74686097D01*
X198762170Y-74785965D01*
X198568598Y-74921505D01*
X198401505Y-75088598D01*
X198265965Y-75282170D01*
X198166097Y-75496336D01*
X198104936Y-75724592D01*
X198084340Y-75959999D01*
X196183975Y-75959999D01*
X196172964Y-75915000D01*
X196186975Y-75857743D01*
X196225839Y-75813426D01*
X196411401Y-75683495D01*
X196578495Y-75516401D01*
X196714035Y-75322830D01*
X196813903Y-75108663D01*
X196875063Y-74880408D01*
X196895659Y-74645000D01*
X196875063Y-74409592D01*
X196813903Y-74181337D01*
X196714035Y-73967171D01*
X196578495Y-73773599D01*
X196411401Y-73606505D01*
X196225839Y-73476573D01*
X196186974Y-73432255D01*
X196172964Y-73374999D01*
X196186975Y-73317742D01*
X196225837Y-73273428D01*
X196411401Y-73143495D01*
X196578495Y-72976401D01*
X196714035Y-72782830D01*
X196813903Y-72568663D01*
X196875063Y-72340408D01*
X196889097Y-72180000D01*
X197894531Y-72180000D01*
X197914364Y-72406689D01*
X197973261Y-72626497D01*
X198069432Y-72832735D01*
X198199953Y-73019140D01*
X198360859Y-73180046D01*
X198547264Y-73310567D01*
X198547265Y-73310567D01*
X198547266Y-73310568D01*
X198753504Y-73406739D01*
X198973308Y-73465635D01*
X199200000Y-73485468D01*
X199426692Y-73465635D01*
X199646496Y-73406739D01*
X199852734Y-73310568D01*
X200039139Y-73180047D01*
X200200047Y-73019139D01*
X200330568Y-72832734D01*
X200426739Y-72626496D01*
X200485635Y-72406692D01*
X200505468Y-72180000D01*
X200485635Y-71953308D01*
X200426739Y-71733504D01*
X200330568Y-71527266D01*
X200321377Y-71514140D01*
X200200046Y-71340859D01*
X200039140Y-71179953D01*
X199852735Y-71049432D01*
X199646497Y-70953261D01*
X199426689Y-70894364D01*
X199199999Y-70874531D01*
X198973310Y-70894364D01*
X198753502Y-70953261D01*
X198547264Y-71049432D01*
X198360859Y-71179953D01*
X198199953Y-71340859D01*
X198069432Y-71527264D01*
X197973261Y-71733502D01*
X197914364Y-71953310D01*
X197894531Y-72180000D01*
X196889097Y-72180000D01*
X196895659Y-72105000D01*
X196875063Y-71869592D01*
X196813903Y-71641337D01*
X196714035Y-71427171D01*
X196578495Y-71233599D01*
X196411401Y-71066505D01*
X196225839Y-70936573D01*
X196186974Y-70892255D01*
X196172964Y-70834999D01*
X196186975Y-70777742D01*
X196225837Y-70733428D01*
X196411401Y-70603495D01*
X196578495Y-70436401D01*
X196714035Y-70242830D01*
X196813903Y-70028663D01*
X196875063Y-69800408D01*
X196895659Y-69565000D01*
X196893859Y-69544432D01*
X196875063Y-69329592D01*
X196831319Y-69166336D01*
X196813903Y-69101337D01*
X196714035Y-68887171D01*
X196578495Y-68693599D01*
X196411401Y-68526505D01*
X196225402Y-68396267D01*
X196186539Y-68351951D01*
X196172528Y-68294694D01*
X196186539Y-68237437D01*
X196225405Y-68193119D01*
X196411078Y-68063109D01*
X196578106Y-67896081D01*
X196713600Y-67702576D01*
X196813430Y-67488492D01*
X196870636Y-67275000D01*
X191650000Y-67275000D01*
X191650000Y-67922824D01*
X191656402Y-67982375D01*
X191706647Y-68117089D01*
X191792811Y-68232188D01*
X191907911Y-68318352D01*
X192039471Y-68367422D01*
X192089850Y-68402401D01*
X192117303Y-68457246D01*
X192115114Y-68518539D01*
X192083819Y-68571285D01*
X191961503Y-68693601D01*
X191825965Y-68887170D01*
X191726097Y-69101336D01*
X191664936Y-69329592D01*
X191644340Y-69564999D01*
X191664936Y-69800407D01*
X191682353Y-69865407D01*
X191726097Y-70028663D01*
X191825965Y-70242830D01*
X191961505Y-70436401D01*
X192128599Y-70603495D01*
X192314160Y-70733426D01*
X192353024Y-70777743D01*
X192367035Y-70835000D01*
X192353024Y-70892257D01*
X192314160Y-70936574D01*
X192220894Y-71001880D01*
X192128595Y-71066508D01*
X191961505Y-71233598D01*
X191825965Y-71427170D01*
X191726097Y-71641336D01*
X191664936Y-71869592D01*
X191644340Y-72105000D01*
X191664936Y-72340407D01*
X191686263Y-72420000D01*
X191726097Y-72568663D01*
X191825965Y-72782830D01*
X191961505Y-72976401D01*
X192128599Y-73143495D01*
X192314160Y-73273426D01*
X192353024Y-73317743D01*
X192367035Y-73375000D01*
X192353024Y-73432257D01*
X192314159Y-73476575D01*
X192128595Y-73606508D01*
X191961505Y-73773598D01*
X191825965Y-73967170D01*
X191726097Y-74181336D01*
X191664936Y-74409592D01*
X191644340Y-74644999D01*
X191664936Y-74880407D01*
X191682353Y-74945407D01*
X191726097Y-75108663D01*
X191825965Y-75322830D01*
X191961505Y-75516401D01*
X192128599Y-75683495D01*
X192314160Y-75813426D01*
X192353024Y-75857743D01*
X192367035Y-75915000D01*
X192353024Y-75972257D01*
X192314159Y-76016575D01*
X192128595Y-76146508D01*
X191961505Y-76313598D01*
X191825965Y-76507170D01*
X191726097Y-76721336D01*
X191664936Y-76949592D01*
X191644340Y-77185000D01*
X191664936Y-77420407D01*
X191709709Y-77587502D01*
X191726097Y-77648663D01*
X191825965Y-77862830D01*
X191961505Y-78056401D01*
X192128599Y-78223495D01*
X192314160Y-78353426D01*
X192353024Y-78397743D01*
X192367035Y-78455000D01*
X192353024Y-78512257D01*
X192314159Y-78556575D01*
X192128595Y-78686508D01*
X191961505Y-78853598D01*
X191825965Y-79047170D01*
X191726097Y-79261336D01*
X191664936Y-79489592D01*
X191644340Y-79724999D01*
X191664936Y-79960407D01*
X191702910Y-80102127D01*
X191726097Y-80188663D01*
X191825965Y-80402830D01*
X191961505Y-80596401D01*
X192128599Y-80763495D01*
X192314160Y-80893426D01*
X192353024Y-80937743D01*
X192367035Y-80995000D01*
X192353024Y-81052257D01*
X192314159Y-81096575D01*
X192128595Y-81226508D01*
X191961505Y-81393598D01*
X191825965Y-81587170D01*
X191726097Y-81801336D01*
X191664936Y-82029592D01*
X191644340Y-82264999D01*
X191664936Y-82500407D01*
X191682353Y-82565407D01*
X191726097Y-82728663D01*
X191825965Y-82942830D01*
X191961505Y-83136401D01*
X192128599Y-83303495D01*
X192314160Y-83433426D01*
X192353024Y-83477743D01*
X192367035Y-83535000D01*
X192353024Y-83592257D01*
X192314159Y-83636575D01*
X192128595Y-83766508D01*
X191961505Y-83933598D01*
X191825965Y-84127170D01*
X191726097Y-84341336D01*
X191664936Y-84569592D01*
X191644340Y-84805000D01*
X191664936Y-85040407D01*
X191682353Y-85105407D01*
X191726097Y-85268663D01*
X191825965Y-85482830D01*
X191961505Y-85676401D01*
X192128599Y-85843495D01*
X192314160Y-85973426D01*
X192353024Y-86017743D01*
X192367035Y-86075000D01*
X192353024Y-86132257D01*
X192314159Y-86176575D01*
X192128595Y-86306508D01*
X191961505Y-86473598D01*
X191825965Y-86667170D01*
X191726097Y-86881336D01*
X191664936Y-87109592D01*
X191644340Y-87344999D01*
X191664936Y-87580407D01*
X191682353Y-87645407D01*
X191726097Y-87808663D01*
X191825965Y-88022830D01*
X191961505Y-88216401D01*
X192128599Y-88383495D01*
X192314160Y-88513426D01*
X192353024Y-88557743D01*
X192367035Y-88615000D01*
X192353024Y-88672257D01*
X192314158Y-88716575D01*
X192200767Y-88795973D01*
X192128595Y-88846508D01*
X191961505Y-89013598D01*
X191825965Y-89207170D01*
X191726097Y-89421336D01*
X191664936Y-89649592D01*
X191644340Y-89885000D01*
X191664936Y-90120407D01*
X191666167Y-90125000D01*
X191726097Y-90348663D01*
X191825965Y-90562830D01*
X191961505Y-90756401D01*
X192128599Y-90923495D01*
X192314160Y-91053426D01*
X192353024Y-91097743D01*
X192367035Y-91155000D01*
X192353024Y-91212257D01*
X192314158Y-91256575D01*
X192221331Y-91321574D01*
X192128595Y-91386508D01*
X191961505Y-91553598D01*
X191825965Y-91747170D01*
X191726097Y-91961336D01*
X191664936Y-92189592D01*
X191644340Y-92424999D01*
X191664936Y-92660407D01*
X191682353Y-92725407D01*
X191726097Y-92888663D01*
X191825965Y-93102830D01*
X191961505Y-93296401D01*
X192128599Y-93463495D01*
X192314160Y-93593426D01*
X192353024Y-93637743D01*
X192367035Y-93695000D01*
X192353024Y-93752257D01*
X192314159Y-93796575D01*
X192128595Y-93926508D01*
X191961505Y-94093598D01*
X191825965Y-94287170D01*
X191726097Y-94501336D01*
X191664936Y-94729592D01*
X191644340Y-94965000D01*
X191664936Y-95200407D01*
X191682353Y-95265407D01*
X191726097Y-95428663D01*
X191825965Y-95642830D01*
X191961505Y-95836401D01*
X192128599Y-96003495D01*
X192314160Y-96133426D01*
X192353024Y-96177743D01*
X192367035Y-96235000D01*
X192353024Y-96292257D01*
X192314159Y-96336575D01*
X192128595Y-96466508D01*
X191961505Y-96633598D01*
X191825965Y-96827170D01*
X191726097Y-97041336D01*
X191664936Y-97269592D01*
X191644340Y-97504999D01*
X191664936Y-97740407D01*
X191682353Y-97805407D01*
X191726097Y-97968663D01*
X191825965Y-98182830D01*
X191961505Y-98376401D01*
X192128599Y-98543495D01*
X192314160Y-98673426D01*
X192353024Y-98717743D01*
X192367035Y-98775000D01*
X192353024Y-98832257D01*
X192314158Y-98876575D01*
X192185920Y-98966369D01*
X192128595Y-99006508D01*
X191961505Y-99173598D01*
X191825965Y-99367170D01*
X191726097Y-99581336D01*
X191664936Y-99809592D01*
X191644340Y-100045000D01*
X191664936Y-100280407D01*
X191682353Y-100345407D01*
X191726097Y-100508663D01*
X191825965Y-100722830D01*
X191961505Y-100916401D01*
X192128599Y-101083495D01*
X192314160Y-101213426D01*
X192353024Y-101257743D01*
X192367035Y-101315000D01*
X192353024Y-101372257D01*
X192314158Y-101416575D01*
X192221331Y-101481574D01*
X192128595Y-101546508D01*
X191961505Y-101713598D01*
X191825965Y-101907170D01*
X191726097Y-102121336D01*
X191664936Y-102349592D01*
X191644340Y-102585000D01*
X191664936Y-102820407D01*
X191682353Y-102885407D01*
X191726097Y-103048663D01*
X191825965Y-103262830D01*
X191961505Y-103456401D01*
X192128599Y-103623495D01*
X192314160Y-103753426D01*
X192353024Y-103797743D01*
X192367035Y-103855000D01*
X192353024Y-103912257D01*
X192314159Y-103956575D01*
X192128595Y-104086508D01*
X191961505Y-104253598D01*
X191825965Y-104447170D01*
X191726097Y-104661336D01*
X191664936Y-104889592D01*
X191644340Y-105124999D01*
X191664936Y-105360407D01*
X191682353Y-105425407D01*
X191726097Y-105588663D01*
X191825965Y-105802830D01*
X191961505Y-105996401D01*
X192128599Y-106163495D01*
X192314160Y-106293426D01*
X192353024Y-106337743D01*
X192367035Y-106395000D01*
X192353024Y-106452257D01*
X192314159Y-106496575D01*
X192128595Y-106626508D01*
X191961505Y-106793598D01*
X191825965Y-106987170D01*
X191726097Y-107201336D01*
X191664936Y-107429592D01*
X191644340Y-107665000D01*
X191664936Y-107900407D01*
X191682353Y-107965407D01*
X191726097Y-108128663D01*
X191825965Y-108342830D01*
X191961505Y-108536401D01*
X192128599Y-108703495D01*
X192314160Y-108833426D01*
X192353024Y-108877743D01*
X192367035Y-108935000D01*
X192353024Y-108992257D01*
X192314160Y-109036574D01*
X192221331Y-109101574D01*
X192128595Y-109166508D01*
X191961505Y-109333598D01*
X191825965Y-109527170D01*
X191726097Y-109741336D01*
X191664936Y-109969592D01*
X191644340Y-110204999D01*
X191664936Y-110440407D01*
X191682353Y-110505407D01*
X191726097Y-110668663D01*
X191825965Y-110882830D01*
X191961505Y-111076401D01*
X192128599Y-111243495D01*
X192314160Y-111373426D01*
X192353024Y-111417743D01*
X192367035Y-111475000D01*
X192353024Y-111532257D01*
X192314159Y-111576575D01*
X192128595Y-111706508D01*
X191961505Y-111873598D01*
X191825965Y-112067170D01*
X191726097Y-112281336D01*
X191664936Y-112509592D01*
X191644340Y-112745000D01*
X191664936Y-112980407D01*
X191682353Y-113045407D01*
X191726097Y-113208663D01*
X191825965Y-113422830D01*
X191961505Y-113616401D01*
X192128599Y-113783495D01*
X192314160Y-113913426D01*
X192353024Y-113957743D01*
X192367035Y-114015000D01*
X192353024Y-114072257D01*
X192314159Y-114116575D01*
X192128595Y-114246508D01*
X191961505Y-114413598D01*
X191825965Y-114607170D01*
X191726097Y-114821336D01*
X191664936Y-115049592D01*
X191644340Y-115284999D01*
X191664936Y-115520407D01*
X191682353Y-115585407D01*
X191726097Y-115748663D01*
X191825965Y-115962830D01*
X191961505Y-116156401D01*
X192128599Y-116323495D01*
X192314160Y-116453426D01*
X192353024Y-116497743D01*
X192367035Y-116555000D01*
X192353024Y-116612257D01*
X192314159Y-116656575D01*
X192128595Y-116786508D01*
X191961505Y-116953598D01*
X191825965Y-117147170D01*
X191726097Y-117361336D01*
X191664936Y-117589592D01*
X191644340Y-117825000D01*
X191664936Y-118060407D01*
X191682353Y-118125407D01*
X191726097Y-118288663D01*
X191825965Y-118502830D01*
X191961505Y-118696401D01*
X192128599Y-118863495D01*
X192314160Y-118993426D01*
X192353024Y-119037743D01*
X192367035Y-119095000D01*
X192353024Y-119152257D01*
X192314158Y-119196575D01*
X192221331Y-119261574D01*
X192128595Y-119326508D01*
X191961505Y-119493598D01*
X191825965Y-119687170D01*
X191726097Y-119901336D01*
X191664936Y-120129592D01*
X191644340Y-120364999D01*
X191664936Y-120600407D01*
X191682353Y-120665407D01*
X191726097Y-120828663D01*
X191825965Y-121042830D01*
X191961505Y-121236401D01*
X192128599Y-121403495D01*
X192314160Y-121533426D01*
X192353024Y-121577743D01*
X192367035Y-121635000D01*
X192353024Y-121692257D01*
X192314159Y-121736575D01*
X192128595Y-121866508D01*
X191961505Y-122033598D01*
X191825965Y-122227170D01*
X191726097Y-122441336D01*
X191664936Y-122669592D01*
X191644340Y-122905000D01*
X191664936Y-123140407D01*
X191682353Y-123205407D01*
X191726097Y-123368663D01*
X191825965Y-123582830D01*
X191961505Y-123776401D01*
X192128599Y-123943495D01*
X192314160Y-124073426D01*
X192353024Y-124117743D01*
X192367035Y-124175000D01*
X192353024Y-124232257D01*
X192314158Y-124276575D01*
X192221331Y-124341574D01*
X192128595Y-124406508D01*
X191961505Y-124573598D01*
X191825965Y-124767170D01*
X191726097Y-124981336D01*
X191664936Y-125209592D01*
X191644340Y-125444999D01*
X145224972Y-125444999D01*
X145210063Y-125274592D01*
X145148903Y-125046337D01*
X145049035Y-124832171D01*
X144913495Y-124638599D01*
X144746401Y-124471505D01*
X144560839Y-124341573D01*
X144521974Y-124297255D01*
X144507964Y-124239999D01*
X144521975Y-124182742D01*
X144560837Y-124138428D01*
X144746401Y-124008495D01*
X144913495Y-123841401D01*
X145049035Y-123647830D01*
X145148903Y-123433663D01*
X145210063Y-123205408D01*
X145230659Y-122970000D01*
X145210063Y-122734592D01*
X145148903Y-122506337D01*
X145049035Y-122292171D01*
X144913495Y-122098599D01*
X144746401Y-121931505D01*
X144560839Y-121801573D01*
X144521975Y-121757257D01*
X144507964Y-121700000D01*
X144521975Y-121642743D01*
X144560839Y-121598426D01*
X144746401Y-121468495D01*
X144913495Y-121301401D01*
X145049035Y-121107830D01*
X145148903Y-120893663D01*
X145210063Y-120665408D01*
X145230659Y-120430000D01*
X145210063Y-120194592D01*
X145148903Y-119966337D01*
X145049035Y-119752171D01*
X144913495Y-119558599D01*
X144746401Y-119391505D01*
X144560839Y-119261573D01*
X144521974Y-119217255D01*
X144507964Y-119159999D01*
X144521975Y-119102742D01*
X144560837Y-119058428D01*
X144746401Y-118928495D01*
X144913495Y-118761401D01*
X145049035Y-118567830D01*
X145148903Y-118353663D01*
X145210063Y-118125408D01*
X145230659Y-117890000D01*
X145210063Y-117654592D01*
X145148903Y-117426337D01*
X145049035Y-117212171D01*
X144913495Y-117018599D01*
X144746401Y-116851505D01*
X144560839Y-116721573D01*
X144521975Y-116677257D01*
X144507964Y-116620000D01*
X144521975Y-116562743D01*
X144560839Y-116518426D01*
X144746401Y-116388495D01*
X144913495Y-116221401D01*
X145049035Y-116027830D01*
X145148903Y-115813663D01*
X145210063Y-115585408D01*
X145230659Y-115350000D01*
X145210063Y-115114592D01*
X145148903Y-114886337D01*
X145049035Y-114672171D01*
X144913495Y-114478599D01*
X144746401Y-114311505D01*
X144560839Y-114181573D01*
X144521975Y-114137257D01*
X144507964Y-114080000D01*
X144521975Y-114022743D01*
X144560839Y-113978426D01*
X144746401Y-113848495D01*
X144913495Y-113681401D01*
X145049035Y-113487830D01*
X145148903Y-113273663D01*
X145210063Y-113045408D01*
X145230659Y-112810000D01*
X145210063Y-112574592D01*
X145148903Y-112346337D01*
X145049035Y-112132171D01*
X144913495Y-111938599D01*
X144746401Y-111771505D01*
X144560839Y-111641573D01*
X144521975Y-111597257D01*
X144507964Y-111540000D01*
X144521975Y-111482743D01*
X144560839Y-111438426D01*
X144746401Y-111308495D01*
X144913495Y-111141401D01*
X145049035Y-110947830D01*
X145148903Y-110733663D01*
X145210063Y-110505408D01*
X145230659Y-110270000D01*
X145210063Y-110034592D01*
X145148903Y-109806337D01*
X145049035Y-109592171D01*
X144913495Y-109398599D01*
X144746401Y-109231505D01*
X144560839Y-109101573D01*
X144521974Y-109057255D01*
X144507964Y-108999999D01*
X144521975Y-108942742D01*
X144560837Y-108898428D01*
X144746401Y-108768495D01*
X144913495Y-108601401D01*
X145049035Y-108407830D01*
X145148903Y-108193663D01*
X145210063Y-107965408D01*
X145230659Y-107730000D01*
X145210063Y-107494592D01*
X145148903Y-107266337D01*
X145049035Y-107052171D01*
X144913495Y-106858599D01*
X144746401Y-106691505D01*
X144560839Y-106561573D01*
X144521976Y-106517257D01*
X144507965Y-106460000D01*
X144521976Y-106402743D01*
X144560839Y-106358426D01*
X144746401Y-106228495D01*
X144913495Y-106061401D01*
X145049035Y-105867830D01*
X145148903Y-105653663D01*
X145210063Y-105425408D01*
X145230659Y-105190000D01*
X145210063Y-104954592D01*
X145148903Y-104726337D01*
X145049035Y-104512171D01*
X144913495Y-104318599D01*
X144746401Y-104151505D01*
X144560839Y-104021573D01*
X144521975Y-103977257D01*
X144507964Y-103920000D01*
X144521975Y-103862743D01*
X144560839Y-103818426D01*
X144746401Y-103688495D01*
X144913495Y-103521401D01*
X145049035Y-103327830D01*
X145148903Y-103113663D01*
X145210063Y-102885408D01*
X145230659Y-102650000D01*
X145210063Y-102414592D01*
X145148903Y-102186337D01*
X145049035Y-101972171D01*
X144913495Y-101778599D01*
X144746401Y-101611505D01*
X144560839Y-101481573D01*
X144521974Y-101437255D01*
X144507964Y-101379999D01*
X144521975Y-101322742D01*
X144560837Y-101278428D01*
X144746401Y-101148495D01*
X144913495Y-100981401D01*
X145049035Y-100787830D01*
X145148903Y-100573663D01*
X145210063Y-100345408D01*
X145230659Y-100110000D01*
X145210063Y-99874592D01*
X145148903Y-99646337D01*
X145049035Y-99432171D01*
X144913495Y-99238599D01*
X144746401Y-99071505D01*
X144560839Y-98941573D01*
X144521975Y-98897257D01*
X144507964Y-98840000D01*
X144521975Y-98782743D01*
X144560839Y-98738426D01*
X144746401Y-98608495D01*
X144913495Y-98441401D01*
X145049035Y-98247830D01*
X145148903Y-98033663D01*
X145210063Y-97805408D01*
X145230659Y-97570000D01*
X145210063Y-97334592D01*
X145148903Y-97106337D01*
X145049035Y-96892171D01*
X144913495Y-96698599D01*
X144746401Y-96531505D01*
X144560839Y-96401573D01*
X144521975Y-96357257D01*
X144507964Y-96300000D01*
X144521975Y-96242743D01*
X144560839Y-96198426D01*
X144746401Y-96068495D01*
X144913495Y-95901401D01*
X145049035Y-95707830D01*
X145148903Y-95493663D01*
X145210063Y-95265408D01*
X145230659Y-95030000D01*
X145210063Y-94794592D01*
X145148903Y-94566337D01*
X145049035Y-94352171D01*
X144913495Y-94158599D01*
X144746401Y-93991505D01*
X144560839Y-93861573D01*
X144521975Y-93817257D01*
X144507964Y-93760000D01*
X144521975Y-93702743D01*
X144560839Y-93658426D01*
X144746401Y-93528495D01*
X144913495Y-93361401D01*
X145049035Y-93167830D01*
X145148903Y-92953663D01*
X145210063Y-92725408D01*
X145230659Y-92490000D01*
X145210063Y-92254592D01*
X145148903Y-92026337D01*
X145049035Y-91812171D01*
X144913495Y-91618599D01*
X144746401Y-91451505D01*
X144560839Y-91321573D01*
X144521974Y-91277255D01*
X144507964Y-91219999D01*
X144521975Y-91162742D01*
X144560837Y-91118428D01*
X144746401Y-90988495D01*
X144913495Y-90821401D01*
X145049035Y-90627830D01*
X145148903Y-90413663D01*
X145210063Y-90185408D01*
X145230659Y-89950000D01*
X145210063Y-89714592D01*
X145148903Y-89486337D01*
X145049035Y-89272171D01*
X144913495Y-89078599D01*
X144746401Y-88911505D01*
X144560839Y-88781573D01*
X144521974Y-88737255D01*
X144507964Y-88679999D01*
X144521975Y-88622742D01*
X144560837Y-88578428D01*
X144746401Y-88448495D01*
X144913495Y-88281401D01*
X145049035Y-88087830D01*
X145148903Y-87873663D01*
X145210063Y-87645408D01*
X145230659Y-87410000D01*
X145210063Y-87174592D01*
X145148903Y-86946337D01*
X145049035Y-86732171D01*
X144913495Y-86538599D01*
X144746401Y-86371505D01*
X144560839Y-86241573D01*
X144521975Y-86197257D01*
X144507964Y-86140000D01*
X144521975Y-86082743D01*
X144560839Y-86038426D01*
X144746401Y-85908495D01*
X144913495Y-85741401D01*
X145049035Y-85547830D01*
X145148903Y-85333663D01*
X145210063Y-85105408D01*
X145230659Y-84870000D01*
X145210063Y-84634592D01*
X145148903Y-84406337D01*
X145049035Y-84192171D01*
X144913495Y-83998599D01*
X144746401Y-83831505D01*
X144560839Y-83701573D01*
X144521975Y-83657257D01*
X144507964Y-83600000D01*
X144521975Y-83542743D01*
X144560839Y-83498426D01*
X144746401Y-83368495D01*
X144913495Y-83201401D01*
X145049035Y-83007830D01*
X145148903Y-82793663D01*
X145210063Y-82565408D01*
X145230659Y-82330000D01*
X145227491Y-82293796D01*
X145210063Y-82094592D01*
X145205749Y-82078491D01*
X145148903Y-81866337D01*
X145049035Y-81652171D01*
X144913495Y-81458599D01*
X144746401Y-81291505D01*
X144560839Y-81161573D01*
X144521975Y-81117257D01*
X144507964Y-81060000D01*
X144521975Y-81002743D01*
X144560839Y-80958426D01*
X144746401Y-80828495D01*
X144913495Y-80661401D01*
X145049035Y-80467830D01*
X145148903Y-80253663D01*
X145210063Y-80025408D01*
X145230659Y-79790000D01*
X145210063Y-79554592D01*
X145148903Y-79326337D01*
X145049035Y-79112171D01*
X144913495Y-78918599D01*
X144746401Y-78751505D01*
X144560839Y-78621573D01*
X144521975Y-78577257D01*
X144507964Y-78520000D01*
X144521975Y-78462743D01*
X144560839Y-78418426D01*
X144746401Y-78288495D01*
X144913495Y-78121401D01*
X145049035Y-77927830D01*
X145148903Y-77713663D01*
X145210063Y-77485408D01*
X145230659Y-77250000D01*
X145210063Y-77014592D01*
X145148903Y-76786337D01*
X145049035Y-76572171D01*
X144913495Y-76378599D01*
X144746401Y-76211505D01*
X144560839Y-76081573D01*
X144521975Y-76037257D01*
X144507964Y-75980000D01*
X144521975Y-75922743D01*
X144560839Y-75878426D01*
X144746401Y-75748495D01*
X144913495Y-75581401D01*
X145049035Y-75387830D01*
X145148903Y-75173663D01*
X145210063Y-74945408D01*
X145230659Y-74710000D01*
X145210063Y-74474592D01*
X145148903Y-74246337D01*
X145049035Y-74032171D01*
X144913495Y-73838599D01*
X144746401Y-73671505D01*
X144560839Y-73541573D01*
X144521976Y-73497257D01*
X144507965Y-73440000D01*
X144521976Y-73382743D01*
X144560839Y-73338426D01*
X144746401Y-73208495D01*
X144913495Y-73041401D01*
X145049035Y-72847830D01*
X145148903Y-72633663D01*
X145210063Y-72405408D01*
X145230659Y-72170000D01*
X145210063Y-71934592D01*
X145148903Y-71706337D01*
X145049035Y-71492171D01*
X144913495Y-71298599D01*
X144746401Y-71131505D01*
X144560839Y-71001573D01*
X144521975Y-70957257D01*
X144507964Y-70900000D01*
X144521975Y-70842743D01*
X144560839Y-70798426D01*
X144746401Y-70668495D01*
X144913495Y-70501401D01*
X145049035Y-70307830D01*
X145148903Y-70093663D01*
X145210063Y-69865408D01*
X145230659Y-69630000D01*
X145210063Y-69394592D01*
X145148903Y-69166337D01*
X145049035Y-68952171D01*
X144913495Y-68758599D01*
X144746401Y-68591505D01*
X144560402Y-68461267D01*
X144521539Y-68416951D01*
X144507528Y-68359694D01*
X144521539Y-68302437D01*
X144560405Y-68258119D01*
X144746078Y-68128109D01*
X144913106Y-67961081D01*
X145048600Y-67767576D01*
X145148430Y-67553492D01*
X145205636Y-67340000D01*
X139985000Y-67340000D01*
X139985000Y-67987824D01*
X139991402Y-68047375D01*
X140041647Y-68182089D01*
X140127811Y-68297188D01*
X140242911Y-68383352D01*
X140374471Y-68432422D01*
X140424850Y-68467401D01*
X140452303Y-68522246D01*
X140450114Y-68583539D01*
X140418819Y-68636285D01*
X140296503Y-68758601D01*
X140160965Y-68952170D01*
X140061097Y-69166336D01*
X139999936Y-69394592D01*
X139979340Y-69629999D01*
X139999936Y-69865407D01*
X140044709Y-70032501D01*
X140061097Y-70093663D01*
X140160965Y-70307830D01*
X140296505Y-70501401D01*
X140463599Y-70668495D01*
X140649597Y-70798732D01*
X140688460Y-70843048D01*
X140702471Y-70900305D01*
X140688461Y-70957561D01*
X140649595Y-71001880D01*
X140463919Y-71131892D01*
X140296890Y-71298921D01*
X140161400Y-71492421D01*
X140061569Y-71706507D01*
X140004364Y-71919999D01*
X140004364Y-71920000D01*
X141461000Y-71920000D01*
X141523000Y-71936613D01*
X141568387Y-71982000D01*
X141585000Y-72044000D01*
X141585000Y-72296000D01*
X141568387Y-72358000D01*
X141523000Y-72403387D01*
X141461000Y-72420000D01*
X140004364Y-72420000D01*
X140061569Y-72633492D01*
X140161399Y-72847576D01*
X140296893Y-73041081D01*
X140463918Y-73208106D01*
X140649595Y-73338119D01*
X140688460Y-73382437D01*
X140702471Y-73439694D01*
X140688460Y-73496951D01*
X140649595Y-73541269D01*
X140463595Y-73671508D01*
X140296505Y-73838598D01*
X140160965Y-74032170D01*
X140061097Y-74246336D01*
X139999936Y-74474592D01*
X139979340Y-74710000D01*
X139999936Y-74945407D01*
X140044709Y-75112502D01*
X140061097Y-75173663D01*
X140160965Y-75387830D01*
X140296505Y-75581401D01*
X140463599Y-75748495D01*
X140649160Y-75878426D01*
X140688024Y-75922743D01*
X140702035Y-75980000D01*
X140688024Y-76037257D01*
X140649158Y-76081575D01*
X140486590Y-76195407D01*
X140463595Y-76211508D01*
X140296505Y-76378598D01*
X140160965Y-76572170D01*
X140061097Y-76786336D01*
X139999936Y-77014592D01*
X139979340Y-77250000D01*
X139999936Y-77485407D01*
X140044709Y-77652501D01*
X140061097Y-77713663D01*
X140160965Y-77927830D01*
X140296505Y-78121401D01*
X140463599Y-78288495D01*
X140649160Y-78418426D01*
X140688024Y-78462743D01*
X140702035Y-78520000D01*
X140688024Y-78577257D01*
X140649158Y-78621575D01*
X140465749Y-78750000D01*
X140463595Y-78751508D01*
X140296505Y-78918598D01*
X140160965Y-79112170D01*
X140061097Y-79326336D01*
X139999936Y-79554592D01*
X139979340Y-79790000D01*
X139999936Y-80025407D01*
X140044709Y-80192501D01*
X140061097Y-80253663D01*
X140160965Y-80467830D01*
X140296505Y-80661401D01*
X140463599Y-80828495D01*
X140649160Y-80958426D01*
X140688024Y-81002743D01*
X140702035Y-81060000D01*
X140688024Y-81117257D01*
X140649158Y-81161575D01*
X140486590Y-81275407D01*
X140463595Y-81291508D01*
X140296505Y-81458598D01*
X140160965Y-81652170D01*
X140061097Y-81866336D01*
X139999936Y-82094592D01*
X139979340Y-82329999D01*
X139999936Y-82565407D01*
X140044709Y-82732501D01*
X140061097Y-82793663D01*
X140160965Y-83007830D01*
X140296505Y-83201401D01*
X140463599Y-83368495D01*
X140649160Y-83498426D01*
X140688024Y-83542743D01*
X140702035Y-83600000D01*
X140688024Y-83657257D01*
X140649158Y-83701575D01*
X140486590Y-83815407D01*
X140463595Y-83831508D01*
X140296505Y-83998598D01*
X140160965Y-84192170D01*
X140061097Y-84406336D01*
X139999936Y-84634592D01*
X139979340Y-84870000D01*
X139999936Y-85105407D01*
X140044709Y-85272502D01*
X140061097Y-85333663D01*
X140160965Y-85547830D01*
X140296505Y-85741401D01*
X140463599Y-85908495D01*
X140649160Y-86038426D01*
X140688024Y-86082743D01*
X140702035Y-86140000D01*
X140688024Y-86197257D01*
X140649158Y-86241575D01*
X140465749Y-86370000D01*
X140463595Y-86371508D01*
X140296505Y-86538598D01*
X140160965Y-86732170D01*
X140061097Y-86946336D01*
X139999936Y-87174592D01*
X139979340Y-87409999D01*
X139999936Y-87645407D01*
X140044709Y-87812501D01*
X140061097Y-87873663D01*
X140160965Y-88087830D01*
X140296505Y-88281401D01*
X140463599Y-88448495D01*
X140649160Y-88578426D01*
X140688024Y-88622743D01*
X140702035Y-88680000D01*
X140688024Y-88737257D01*
X140649159Y-88781575D01*
X140463595Y-88911508D01*
X140296505Y-89078598D01*
X140160965Y-89272170D01*
X140061097Y-89486336D01*
X139999936Y-89714592D01*
X139979340Y-89949999D01*
X139999936Y-90185407D01*
X140044709Y-90352501D01*
X140061097Y-90413663D01*
X140160965Y-90627830D01*
X140296505Y-90821401D01*
X140463599Y-90988495D01*
X140649160Y-91118426D01*
X140688024Y-91162743D01*
X140702035Y-91220000D01*
X140688024Y-91277257D01*
X140649159Y-91321575D01*
X140463595Y-91451508D01*
X140296505Y-91618598D01*
X140160965Y-91812170D01*
X140061097Y-92026336D01*
X139999936Y-92254592D01*
X139979340Y-92490000D01*
X139999936Y-92725407D01*
X140044709Y-92892501D01*
X140061097Y-92953663D01*
X140160965Y-93167830D01*
X140296505Y-93361401D01*
X140463599Y-93528495D01*
X140649160Y-93658426D01*
X140688024Y-93702743D01*
X140702035Y-93760000D01*
X140688024Y-93817257D01*
X140649159Y-93861575D01*
X140463595Y-93991508D01*
X140296505Y-94158598D01*
X140160965Y-94352170D01*
X140061097Y-94566336D01*
X139999936Y-94794592D01*
X139979340Y-95030000D01*
X139999936Y-95265407D01*
X140044709Y-95432502D01*
X140061097Y-95493663D01*
X140160965Y-95707830D01*
X140296505Y-95901401D01*
X140463599Y-96068495D01*
X140649160Y-96198426D01*
X140688024Y-96242743D01*
X140702035Y-96300000D01*
X140688024Y-96357257D01*
X140649159Y-96401575D01*
X140463595Y-96531508D01*
X140296505Y-96698598D01*
X140160965Y-96892170D01*
X140061097Y-97106336D01*
X139999936Y-97334592D01*
X139979340Y-97569999D01*
X139999936Y-97805407D01*
X140044709Y-97972501D01*
X140061097Y-98033663D01*
X140160965Y-98247830D01*
X140296505Y-98441401D01*
X140463599Y-98608495D01*
X140649160Y-98738426D01*
X140688024Y-98782743D01*
X140702035Y-98840000D01*
X140688024Y-98897257D01*
X140649159Y-98941575D01*
X140463595Y-99071508D01*
X140296505Y-99238598D01*
X140160965Y-99432170D01*
X140061097Y-99646336D01*
X139999936Y-99874592D01*
X139979340Y-100109999D01*
X139999936Y-100345407D01*
X140044709Y-100512501D01*
X140061097Y-100573663D01*
X140160965Y-100787830D01*
X140296505Y-100981401D01*
X140463599Y-101148495D01*
X140649160Y-101278426D01*
X140688024Y-101322743D01*
X140702035Y-101380000D01*
X140688024Y-101437257D01*
X140649159Y-101481575D01*
X140463595Y-101611508D01*
X140296505Y-101778598D01*
X140160965Y-101972170D01*
X140061097Y-102186336D01*
X139999936Y-102414592D01*
X139979340Y-102650000D01*
X139999936Y-102885407D01*
X140044709Y-103052502D01*
X140061097Y-103113663D01*
X140160965Y-103327830D01*
X140296505Y-103521401D01*
X140463599Y-103688495D01*
X140649160Y-103818426D01*
X140688024Y-103862743D01*
X140702035Y-103920000D01*
X140688024Y-103977257D01*
X140649159Y-104021575D01*
X140463595Y-104151508D01*
X140296505Y-104318598D01*
X140160965Y-104512170D01*
X140061097Y-104726336D01*
X139999936Y-104954592D01*
X139979340Y-105190000D01*
X139999936Y-105425407D01*
X140044709Y-105592502D01*
X140061097Y-105653663D01*
X140160965Y-105867830D01*
X140296505Y-106061401D01*
X140463599Y-106228495D01*
X140649160Y-106358426D01*
X140688024Y-106402743D01*
X140702035Y-106460000D01*
X140688024Y-106517257D01*
X140649159Y-106561575D01*
X140463595Y-106691508D01*
X140296505Y-106858598D01*
X140160965Y-107052170D01*
X140061097Y-107266336D01*
X139999936Y-107494592D01*
X139979340Y-107729999D01*
X139999936Y-107965407D01*
X140044709Y-108132501D01*
X140061097Y-108193663D01*
X140160965Y-108407830D01*
X140296505Y-108601401D01*
X140463599Y-108768495D01*
X140649160Y-108898426D01*
X140688024Y-108942743D01*
X140702035Y-109000000D01*
X140688024Y-109057257D01*
X140649159Y-109101575D01*
X140463595Y-109231508D01*
X140296505Y-109398598D01*
X140160965Y-109592170D01*
X140061097Y-109806336D01*
X139999936Y-110034592D01*
X139979340Y-110270000D01*
X139999936Y-110505407D01*
X140044709Y-110672502D01*
X140061097Y-110733663D01*
X140160965Y-110947830D01*
X140296505Y-111141401D01*
X140463599Y-111308495D01*
X140649160Y-111438426D01*
X140688024Y-111482743D01*
X140702035Y-111540000D01*
X140688024Y-111597257D01*
X140649159Y-111641575D01*
X140463595Y-111771508D01*
X140296505Y-111938598D01*
X140160965Y-112132170D01*
X140061097Y-112346336D01*
X139999936Y-112574592D01*
X139979340Y-112810000D01*
X139999936Y-113045407D01*
X140044709Y-113212502D01*
X140061097Y-113273663D01*
X140160965Y-113487830D01*
X140296505Y-113681401D01*
X140463599Y-113848495D01*
X140649160Y-113978426D01*
X140688024Y-114022743D01*
X140702035Y-114080000D01*
X140688024Y-114137257D01*
X140649159Y-114181575D01*
X140463595Y-114311508D01*
X140296505Y-114478598D01*
X140160965Y-114672170D01*
X140061097Y-114886336D01*
X139999936Y-115114592D01*
X139979340Y-115349999D01*
X139999936Y-115585407D01*
X140044709Y-115752502D01*
X140061097Y-115813663D01*
X140160965Y-116027830D01*
X140296505Y-116221401D01*
X140463599Y-116388495D01*
X140649160Y-116518426D01*
X140688024Y-116562743D01*
X140702035Y-116620000D01*
X140688024Y-116677257D01*
X140649159Y-116721575D01*
X140463595Y-116851508D01*
X140296505Y-117018598D01*
X140160965Y-117212170D01*
X140061097Y-117426336D01*
X139999936Y-117654592D01*
X139979340Y-117889999D01*
X139999936Y-118125407D01*
X140044709Y-118292502D01*
X140061097Y-118353663D01*
X140160965Y-118567830D01*
X140296505Y-118761401D01*
X140463599Y-118928495D01*
X140649160Y-119058426D01*
X140688024Y-119102743D01*
X140702035Y-119160000D01*
X140688024Y-119217257D01*
X140649159Y-119261575D01*
X140463595Y-119391508D01*
X140296505Y-119558598D01*
X140160965Y-119752170D01*
X140061097Y-119966336D01*
X139999936Y-120194592D01*
X139979340Y-120430000D01*
X139999936Y-120665407D01*
X140044709Y-120832502D01*
X140061097Y-120893663D01*
X140160965Y-121107830D01*
X140296505Y-121301401D01*
X140463599Y-121468495D01*
X140649160Y-121598426D01*
X140688024Y-121642743D01*
X140702035Y-121700000D01*
X140688024Y-121757257D01*
X140649159Y-121801575D01*
X140463595Y-121931508D01*
X140296505Y-122098598D01*
X140160965Y-122292170D01*
X140061097Y-122506336D01*
X139999936Y-122734592D01*
X139979340Y-122970000D01*
X139999936Y-123205407D01*
X140044709Y-123372501D01*
X140061097Y-123433663D01*
X140160965Y-123647830D01*
X140296505Y-123841401D01*
X140463599Y-124008495D01*
X140649160Y-124138426D01*
X140688024Y-124182743D01*
X140702035Y-124240000D01*
X140688024Y-124297257D01*
X140649159Y-124341575D01*
X140463595Y-124471508D01*
X140296505Y-124638598D01*
X140160965Y-124832170D01*
X140061097Y-125046336D01*
X139999936Y-125274592D01*
X139979340Y-125510000D01*
X123550500Y-125510000D01*
X123550500Y-99473610D01*
X127954942Y-99473610D01*
X128001766Y-99510055D01*
X128220393Y-99628368D01*
X128455506Y-99709083D01*
X128700707Y-99750000D01*
X128949293Y-99750000D01*
X129194493Y-99709083D01*
X129429606Y-99628368D01*
X129648233Y-99510053D01*
X129695056Y-99473609D01*
X129519316Y-99297869D01*
X134924500Y-99297869D01*
X134930909Y-99357483D01*
X134981204Y-99492331D01*
X135067454Y-99607546D01*
X135182669Y-99693796D01*
X135317517Y-99744091D01*
X135377127Y-99750500D01*
X137472872Y-99750499D01*
X137532483Y-99744091D01*
X137667331Y-99693796D01*
X137782546Y-99607546D01*
X137868796Y-99492331D01*
X137919091Y-99357483D01*
X137925500Y-99297873D01*
X137925499Y-97202128D01*
X137919091Y-97142517D01*
X137868796Y-97007669D01*
X137782546Y-96892454D01*
X137667331Y-96806204D01*
X137532483Y-96755909D01*
X137472873Y-96749500D01*
X137472869Y-96749500D01*
X135377130Y-96749500D01*
X135317515Y-96755909D01*
X135182669Y-96806204D01*
X135067454Y-96892454D01*
X134981204Y-97007668D01*
X134930909Y-97142516D01*
X134924500Y-97202130D01*
X134924500Y-99297869D01*
X129519316Y-99297869D01*
X128825000Y-98603553D01*
X127954942Y-99473609D01*
X127954942Y-99473610D01*
X123550500Y-99473610D01*
X123550500Y-98250000D01*
X127319858Y-98250000D01*
X127340386Y-98497732D01*
X127401413Y-98738721D01*
X127501268Y-98966370D01*
X127601563Y-99119882D01*
X127601564Y-99119882D01*
X128471447Y-98250001D01*
X128471447Y-98250000D01*
X129178553Y-98250000D01*
X130048434Y-99119882D01*
X130148730Y-98966369D01*
X130248586Y-98738721D01*
X130309613Y-98497732D01*
X130330141Y-98250000D01*
X130309613Y-98002267D01*
X130248586Y-97761278D01*
X130148730Y-97533630D01*
X130048434Y-97380116D01*
X129178553Y-98250000D01*
X128471447Y-98250000D01*
X127601564Y-97380116D01*
X127501266Y-97533634D01*
X127401413Y-97761278D01*
X127340386Y-98002267D01*
X127319858Y-98250000D01*
X123550500Y-98250000D01*
X123550500Y-97026390D01*
X127954942Y-97026390D01*
X128825000Y-97896447D01*
X128825001Y-97896447D01*
X129695057Y-97026390D01*
X129695056Y-97026388D01*
X129648235Y-96989947D01*
X129429606Y-96871631D01*
X129194493Y-96790916D01*
X128949293Y-96750000D01*
X128700707Y-96750000D01*
X128455506Y-96790916D01*
X128220393Y-96871631D01*
X128001764Y-96989946D01*
X127954942Y-97026388D01*
X127954942Y-97026390D01*
X123550500Y-97026390D01*
X123550500Y-90954026D01*
X129439526Y-90954026D01*
X129512515Y-91005133D01*
X129718673Y-91101266D01*
X129938397Y-91160141D01*
X130164999Y-91179966D01*
X130391602Y-91160141D01*
X130611326Y-91101266D01*
X130817480Y-91005134D01*
X130890472Y-90954025D01*
X130165001Y-90228553D01*
X130165000Y-90228553D01*
X129439526Y-90954025D01*
X129439526Y-90954026D01*
X123550500Y-90954026D01*
X123550500Y-89875000D01*
X128860033Y-89875000D01*
X128879858Y-90101602D01*
X128938733Y-90321326D01*
X129034866Y-90527484D01*
X129085972Y-90600471D01*
X129085974Y-90600472D01*
X129811446Y-89875001D01*
X130518553Y-89875001D01*
X131244025Y-90600472D01*
X131295134Y-90527480D01*
X131391266Y-90321326D01*
X131443872Y-90125000D01*
X136506128Y-90125000D01*
X136558733Y-90321326D01*
X136654865Y-90527480D01*
X136785341Y-90713819D01*
X136946180Y-90874658D01*
X137132519Y-91005134D01*
X137338673Y-91101266D01*
X137534999Y-91153871D01*
X137535000Y-91153872D01*
X137535000Y-90125000D01*
X138035000Y-90125000D01*
X138035000Y-91153871D01*
X138231326Y-91101266D01*
X138437480Y-91005134D01*
X138623819Y-90874658D01*
X138784658Y-90713819D01*
X138915134Y-90527480D01*
X139011266Y-90321326D01*
X139063872Y-90125000D01*
X138035000Y-90125000D01*
X137535000Y-90125000D01*
X136506128Y-90125000D01*
X131443872Y-90125000D01*
X131450141Y-90101602D01*
X131469966Y-89874999D01*
X131450141Y-89648397D01*
X131443872Y-89625000D01*
X136506128Y-89625000D01*
X137535000Y-89625000D01*
X137535000Y-88596128D01*
X138035000Y-88596128D01*
X138035000Y-89625000D01*
X139063872Y-89625000D01*
X139063871Y-89624999D01*
X139011266Y-89428673D01*
X138915134Y-89222519D01*
X138784658Y-89036180D01*
X138623819Y-88875341D01*
X138437480Y-88744865D01*
X138231326Y-88648733D01*
X138035000Y-88596128D01*
X137535000Y-88596128D01*
X137534999Y-88596128D01*
X137338673Y-88648733D01*
X137132519Y-88744865D01*
X136946180Y-88875341D01*
X136785341Y-89036180D01*
X136654865Y-89222519D01*
X136558733Y-89428673D01*
X136506128Y-89624999D01*
X136506128Y-89625000D01*
X131443872Y-89625000D01*
X131391266Y-89428673D01*
X131295133Y-89222515D01*
X131244025Y-89149526D01*
X130518553Y-89875000D01*
X130518553Y-89875001D01*
X129811446Y-89875001D01*
X129811446Y-89875000D01*
X129085973Y-89149526D01*
X129085973Y-89149527D01*
X129034865Y-89222516D01*
X128938733Y-89428672D01*
X128879858Y-89648397D01*
X128860033Y-89875000D01*
X123550500Y-89875000D01*
X123550500Y-88795973D01*
X129439526Y-88795973D01*
X130164998Y-89521446D01*
X130164999Y-89521446D01*
X130890472Y-88795973D01*
X130890471Y-88795972D01*
X130817484Y-88744866D01*
X130611326Y-88648733D01*
X130391602Y-88589858D01*
X130165000Y-88570033D01*
X129938397Y-88589858D01*
X129718672Y-88648733D01*
X129512516Y-88744865D01*
X129439526Y-88795973D01*
X123550500Y-88795973D01*
X123550500Y-86370000D01*
X135744364Y-86370000D01*
X135801569Y-86583492D01*
X135901399Y-86797576D01*
X136036893Y-86991081D01*
X136203918Y-87158106D01*
X136397423Y-87293600D01*
X136611507Y-87393430D01*
X136824999Y-87450635D01*
X136825000Y-87450636D01*
X136825000Y-86370000D01*
X137325000Y-86370000D01*
X137325000Y-87450635D01*
X137538492Y-87393430D01*
X137752576Y-87293600D01*
X137946081Y-87158106D01*
X138113106Y-86991081D01*
X138248600Y-86797576D01*
X138348430Y-86583492D01*
X138405636Y-86370000D01*
X137325000Y-86370000D01*
X136825000Y-86370000D01*
X135744364Y-86370000D01*
X123550500Y-86370000D01*
X123550500Y-83579999D01*
X135719340Y-83579999D01*
X135739936Y-83815407D01*
X135771606Y-83933599D01*
X135801097Y-84043663D01*
X135900965Y-84257830D01*
X136036505Y-84451401D01*
X136203599Y-84618495D01*
X136389597Y-84748732D01*
X136428460Y-84793048D01*
X136442471Y-84850305D01*
X136428461Y-84907561D01*
X136389595Y-84951880D01*
X136203919Y-85081892D01*
X136036890Y-85248921D01*
X135901400Y-85442421D01*
X135801569Y-85656507D01*
X135744364Y-85869999D01*
X135744364Y-85870000D01*
X138405636Y-85870000D01*
X138405635Y-85869999D01*
X138348430Y-85656507D01*
X138248599Y-85442421D01*
X138113109Y-85248921D01*
X137946081Y-85081893D01*
X137760404Y-84951880D01*
X137721539Y-84907562D01*
X137707528Y-84850305D01*
X137721539Y-84793048D01*
X137760402Y-84748732D01*
X137946401Y-84618495D01*
X138113495Y-84451401D01*
X138249035Y-84257830D01*
X138348903Y-84043663D01*
X138410063Y-83815408D01*
X138430659Y-83580000D01*
X138410063Y-83344592D01*
X138348903Y-83116337D01*
X138249035Y-82902171D01*
X138113495Y-82708599D01*
X137946401Y-82541505D01*
X137760839Y-82411573D01*
X137721976Y-82367257D01*
X137707965Y-82310000D01*
X137721976Y-82252743D01*
X137760839Y-82208426D01*
X137946401Y-82078495D01*
X138113495Y-81911401D01*
X138249035Y-81717830D01*
X138348903Y-81503663D01*
X138410063Y-81275408D01*
X138430659Y-81040000D01*
X138421712Y-80937743D01*
X138410063Y-80804592D01*
X138371696Y-80661404D01*
X138348903Y-80576337D01*
X138249035Y-80362171D01*
X138113495Y-80168599D01*
X137991569Y-80046673D01*
X137960273Y-79993927D01*
X137958084Y-79932634D01*
X137985537Y-79877789D01*
X138035916Y-79842810D01*
X138167331Y-79793796D01*
X138282546Y-79707546D01*
X138368796Y-79592331D01*
X138419091Y-79457483D01*
X138425500Y-79397873D01*
X138425499Y-77602128D01*
X138419091Y-77542517D01*
X138368796Y-77407669D01*
X138282546Y-77292454D01*
X138167331Y-77206204D01*
X138032483Y-77155909D01*
X137972873Y-77149500D01*
X137972869Y-77149500D01*
X136177130Y-77149500D01*
X136117515Y-77155909D01*
X135982669Y-77206204D01*
X135867454Y-77292454D01*
X135781204Y-77407668D01*
X135730909Y-77542515D01*
X135730909Y-77542517D01*
X135725955Y-77588599D01*
X135724500Y-77602130D01*
X135724500Y-79397869D01*
X135730909Y-79457484D01*
X135756056Y-79524906D01*
X135781204Y-79592331D01*
X135867454Y-79707546D01*
X135982669Y-79793796D01*
X136086317Y-79832454D01*
X136114082Y-79842810D01*
X136164462Y-79877789D01*
X136191915Y-79932634D01*
X136189726Y-79993926D01*
X136158431Y-80046673D01*
X136036503Y-80168601D01*
X135900965Y-80362170D01*
X135801097Y-80576336D01*
X135739936Y-80804592D01*
X135719340Y-81040000D01*
X135739936Y-81275407D01*
X135771606Y-81393599D01*
X135801097Y-81503663D01*
X135900965Y-81717830D01*
X136036505Y-81911401D01*
X136203599Y-82078495D01*
X136389160Y-82208426D01*
X136428024Y-82252743D01*
X136442035Y-82310000D01*
X136428024Y-82367257D01*
X136389159Y-82411575D01*
X136203595Y-82541508D01*
X136036505Y-82708598D01*
X135900965Y-82902170D01*
X135801097Y-83116336D01*
X135739936Y-83344592D01*
X135719340Y-83579999D01*
X123550500Y-83579999D01*
X123550500Y-78460000D01*
X131494340Y-78460000D01*
X131514936Y-78695407D01*
X131557323Y-78853598D01*
X131576097Y-78923663D01*
X131675965Y-79137830D01*
X131811505Y-79331401D01*
X131811508Y-79331404D01*
X131933430Y-79453326D01*
X131964726Y-79506072D01*
X131966915Y-79567365D01*
X131939462Y-79622209D01*
X131889083Y-79657189D01*
X131757669Y-79706204D01*
X131642454Y-79792454D01*
X131556204Y-79907668D01*
X131505909Y-80042515D01*
X131505909Y-80042517D01*
X131501609Y-80082517D01*
X131499500Y-80102130D01*
X131499500Y-81897869D01*
X131503801Y-81937872D01*
X131505909Y-81957483D01*
X131556204Y-82092331D01*
X131642454Y-82207546D01*
X131757669Y-82293796D01*
X131892517Y-82344091D01*
X131952127Y-82350500D01*
X133747872Y-82350499D01*
X133807483Y-82344091D01*
X133942331Y-82293796D01*
X134057546Y-82207546D01*
X134143796Y-82092331D01*
X134194091Y-81957483D01*
X134200500Y-81897873D01*
X134200499Y-80102128D01*
X134194091Y-80042517D01*
X134143796Y-79907669D01*
X134057546Y-79792454D01*
X133942331Y-79706204D01*
X133880898Y-79683291D01*
X133810916Y-79657189D01*
X133760537Y-79622209D01*
X133733084Y-79567365D01*
X133735273Y-79506072D01*
X133766566Y-79453329D01*
X133888495Y-79331401D01*
X134024035Y-79137830D01*
X134123903Y-78923663D01*
X134185063Y-78695408D01*
X134205659Y-78460000D01*
X134185063Y-78224592D01*
X134123903Y-77996337D01*
X134024035Y-77782171D01*
X133888495Y-77588599D01*
X133721401Y-77421505D01*
X133527830Y-77285965D01*
X133313663Y-77186097D01*
X133252502Y-77169709D01*
X133085407Y-77124936D01*
X132850000Y-77104340D01*
X132614592Y-77124936D01*
X132386336Y-77186097D01*
X132172170Y-77285965D01*
X131978598Y-77421505D01*
X131811505Y-77588598D01*
X131675965Y-77782170D01*
X131576097Y-77996336D01*
X131514936Y-78224592D01*
X131494340Y-78460000D01*
X123550500Y-78460000D01*
X123550500Y-74875000D01*
X128366128Y-74875000D01*
X128418733Y-75071326D01*
X128514865Y-75277480D01*
X128645341Y-75463819D01*
X128806180Y-75624658D01*
X128992519Y-75755134D01*
X129198673Y-75851266D01*
X129394999Y-75903871D01*
X129395000Y-75903872D01*
X129395000Y-74875000D01*
X129895000Y-74875000D01*
X129895000Y-75903871D01*
X130091326Y-75851266D01*
X130297480Y-75755134D01*
X130483819Y-75624658D01*
X130644658Y-75463819D01*
X130775134Y-75277480D01*
X130871266Y-75071326D01*
X130923872Y-74875000D01*
X129895000Y-74875000D01*
X129395000Y-74875000D01*
X128366128Y-74875000D01*
X123550500Y-74875000D01*
X123550500Y-74624999D01*
X135959531Y-74624999D01*
X135979364Y-74851689D01*
X136038261Y-75071497D01*
X136134432Y-75277735D01*
X136264953Y-75464140D01*
X136425859Y-75625046D01*
X136612264Y-75755567D01*
X136612265Y-75755567D01*
X136612266Y-75755568D01*
X136818504Y-75851739D01*
X137038308Y-75910635D01*
X137265000Y-75930468D01*
X137491692Y-75910635D01*
X137711496Y-75851739D01*
X137917734Y-75755568D01*
X138104139Y-75625047D01*
X138265047Y-75464139D01*
X138395568Y-75277734D01*
X138491739Y-75071496D01*
X138550635Y-74851692D01*
X138570468Y-74625000D01*
X138550635Y-74398308D01*
X138491739Y-74178504D01*
X138395568Y-73972266D01*
X138392000Y-73967171D01*
X138265046Y-73785859D01*
X138104140Y-73624953D01*
X137917735Y-73494432D01*
X137711497Y-73398261D01*
X137491689Y-73339364D01*
X137265000Y-73319531D01*
X137038310Y-73339364D01*
X136818502Y-73398261D01*
X136612264Y-73494432D01*
X136425859Y-73624953D01*
X136264953Y-73785859D01*
X136134432Y-73972264D01*
X136038261Y-74178502D01*
X135979364Y-74398310D01*
X135959531Y-74624999D01*
X123550500Y-74624999D01*
X123550500Y-74375000D01*
X128366128Y-74375000D01*
X129395000Y-74375000D01*
X129395000Y-73346128D01*
X129895000Y-73346128D01*
X129895000Y-74375000D01*
X130923872Y-74375000D01*
X130923871Y-74374999D01*
X130871266Y-74178673D01*
X130775134Y-73972519D01*
X130644658Y-73786180D01*
X130483819Y-73625341D01*
X130297480Y-73494865D01*
X130091326Y-73398733D01*
X129895000Y-73346128D01*
X129395000Y-73346128D01*
X129394999Y-73346128D01*
X129198673Y-73398733D01*
X128992519Y-73494865D01*
X128806180Y-73625341D01*
X128645341Y-73786180D01*
X128514865Y-73972519D01*
X128418733Y-74178673D01*
X128366128Y-74374999D01*
X128366128Y-74375000D01*
X123550500Y-74375000D01*
X123550500Y-70925000D01*
X128366128Y-70925000D01*
X128418733Y-71121326D01*
X128514865Y-71327480D01*
X128645341Y-71513819D01*
X128806180Y-71674658D01*
X128992519Y-71805134D01*
X129198673Y-71901266D01*
X129394999Y-71953871D01*
X129395000Y-71953872D01*
X129395000Y-70925000D01*
X129895000Y-70925000D01*
X129895000Y-71953871D01*
X130091326Y-71901266D01*
X130297480Y-71805134D01*
X130483819Y-71674658D01*
X130644658Y-71513819D01*
X130775134Y-71327480D01*
X130871266Y-71121326D01*
X130923872Y-70925000D01*
X129895000Y-70925000D01*
X129395000Y-70925000D01*
X128366128Y-70925000D01*
X123550500Y-70925000D01*
X123550500Y-70675000D01*
X135959531Y-70675000D01*
X135979364Y-70901689D01*
X136038261Y-71121497D01*
X136134432Y-71327735D01*
X136264953Y-71514140D01*
X136425859Y-71675046D01*
X136612264Y-71805567D01*
X136612265Y-71805567D01*
X136612266Y-71805568D01*
X136818504Y-71901739D01*
X137038308Y-71960635D01*
X137265000Y-71980468D01*
X137491692Y-71960635D01*
X137711496Y-71901739D01*
X137917734Y-71805568D01*
X138104139Y-71675047D01*
X138265047Y-71514139D01*
X138395568Y-71327734D01*
X138491739Y-71121496D01*
X138550635Y-70901692D01*
X138570468Y-70675000D01*
X138550635Y-70448308D01*
X138491739Y-70228504D01*
X138395568Y-70022266D01*
X138285735Y-69865407D01*
X138265046Y-69835859D01*
X138104140Y-69674953D01*
X137917735Y-69544432D01*
X137711497Y-69448261D01*
X137491689Y-69389364D01*
X137264999Y-69369531D01*
X137038310Y-69389364D01*
X136818502Y-69448261D01*
X136612264Y-69544432D01*
X136425859Y-69674953D01*
X136264953Y-69835859D01*
X136134432Y-70022264D01*
X136038261Y-70228502D01*
X135979364Y-70448310D01*
X135959531Y-70675000D01*
X123550500Y-70675000D01*
X123550500Y-70425000D01*
X128366128Y-70425000D01*
X129395000Y-70425000D01*
X129395000Y-69396128D01*
X129895000Y-69396128D01*
X129895000Y-70425000D01*
X130923872Y-70425000D01*
X130923871Y-70424999D01*
X130871266Y-70228673D01*
X130775134Y-70022519D01*
X130644658Y-69836180D01*
X130483819Y-69675341D01*
X130297480Y-69544865D01*
X130091326Y-69448733D01*
X129895000Y-69396128D01*
X129395000Y-69396128D01*
X129394999Y-69396128D01*
X129198673Y-69448733D01*
X128992519Y-69544865D01*
X128806180Y-69675341D01*
X128645341Y-69836180D01*
X128514865Y-70022519D01*
X128418733Y-70228673D01*
X128366128Y-70424999D01*
X128366128Y-70425000D01*
X123550500Y-70425000D01*
X123550500Y-67150000D01*
X128334531Y-67150000D01*
X128354364Y-67376689D01*
X128413261Y-67596497D01*
X128509432Y-67802735D01*
X128639953Y-67989140D01*
X128800859Y-68150046D01*
X128987264Y-68280567D01*
X128987265Y-68280567D01*
X128987266Y-68280568D01*
X129193504Y-68376739D01*
X129413308Y-68435635D01*
X129640000Y-68455468D01*
X129866692Y-68435635D01*
X130086496Y-68376739D01*
X130292734Y-68280568D01*
X130479139Y-68150047D01*
X130640047Y-67989139D01*
X130770568Y-67802734D01*
X130866739Y-67596496D01*
X130925635Y-67376692D01*
X130945468Y-67150000D01*
X135954531Y-67150000D01*
X135974364Y-67376689D01*
X136033261Y-67596497D01*
X136129432Y-67802735D01*
X136259953Y-67989140D01*
X136420859Y-68150046D01*
X136607264Y-68280567D01*
X136607265Y-68280567D01*
X136607266Y-68280568D01*
X136813504Y-68376739D01*
X137033308Y-68435635D01*
X137260000Y-68455468D01*
X137486692Y-68435635D01*
X137706496Y-68376739D01*
X137912734Y-68280568D01*
X138099139Y-68150047D01*
X138260047Y-67989139D01*
X138390568Y-67802734D01*
X138486739Y-67596496D01*
X138545635Y-67376692D01*
X138565468Y-67150000D01*
X138545635Y-66923308D01*
X138523313Y-66840000D01*
X139985000Y-66840000D01*
X141085000Y-66840000D01*
X141085000Y-65740000D01*
X141585000Y-65740000D01*
X141585000Y-66840000D01*
X143625000Y-66840000D01*
X143625000Y-65759364D01*
X144125000Y-65759364D01*
X144125000Y-66840000D01*
X145205636Y-66840000D01*
X145205635Y-66839999D01*
X145188219Y-66775000D01*
X191650000Y-66775000D01*
X192750000Y-66775000D01*
X192750000Y-65675000D01*
X193250000Y-65675000D01*
X193250000Y-66775000D01*
X195290000Y-66775000D01*
X195290000Y-65694364D01*
X195790000Y-65694364D01*
X195790000Y-66775000D01*
X196870636Y-66775000D01*
X196870635Y-66774999D01*
X196813430Y-66561507D01*
X196713599Y-66347421D01*
X196578109Y-66153921D01*
X196411081Y-65986893D01*
X196217576Y-65851399D01*
X196003492Y-65751569D01*
X195790000Y-65694364D01*
X195290000Y-65694364D01*
X195289999Y-65694364D01*
X195076507Y-65751569D01*
X194862421Y-65851400D01*
X194668924Y-65986888D01*
X194546477Y-66109335D01*
X194493730Y-66140630D01*
X194432438Y-66142819D01*
X194377593Y-66115366D01*
X194342614Y-66064987D01*
X194293352Y-65932910D01*
X194207188Y-65817811D01*
X194092089Y-65731647D01*
X193957375Y-65681402D01*
X193897824Y-65675000D01*
X193250000Y-65675000D01*
X192750000Y-65675000D01*
X192102176Y-65675000D01*
X192042624Y-65681402D01*
X191907910Y-65731647D01*
X191792811Y-65817811D01*
X191706647Y-65932910D01*
X191656402Y-66067624D01*
X191650000Y-66127176D01*
X191650000Y-66775000D01*
X145188219Y-66775000D01*
X145148430Y-66626507D01*
X145048599Y-66412421D01*
X144913109Y-66218921D01*
X144746081Y-66051893D01*
X144552576Y-65916399D01*
X144338492Y-65816569D01*
X144125000Y-65759364D01*
X143625000Y-65759364D01*
X143624999Y-65759364D01*
X143411507Y-65816569D01*
X143197421Y-65916400D01*
X143003924Y-66051888D01*
X142881477Y-66174335D01*
X142828730Y-66205630D01*
X142767438Y-66207819D01*
X142712593Y-66180366D01*
X142677614Y-66129987D01*
X142628352Y-65997910D01*
X142542188Y-65882811D01*
X142427089Y-65796647D01*
X142292375Y-65746402D01*
X142232824Y-65740000D01*
X141585000Y-65740000D01*
X141085000Y-65740000D01*
X140437176Y-65740000D01*
X140377624Y-65746402D01*
X140242910Y-65796647D01*
X140127811Y-65882811D01*
X140041647Y-65997910D01*
X139991402Y-66132624D01*
X139985000Y-66192176D01*
X139985000Y-66840000D01*
X138523313Y-66840000D01*
X138486739Y-66703504D01*
X138390568Y-66497266D01*
X138331159Y-66412421D01*
X138260046Y-66310859D01*
X138099140Y-66149953D01*
X137912735Y-66019432D01*
X137706497Y-65923261D01*
X137486689Y-65864364D01*
X137260000Y-65844531D01*
X137033310Y-65864364D01*
X136813502Y-65923261D01*
X136607264Y-66019432D01*
X136420859Y-66149953D01*
X136259953Y-66310859D01*
X136129432Y-66497264D01*
X136033261Y-66703502D01*
X135974364Y-66923310D01*
X135954531Y-67150000D01*
X130945468Y-67150000D01*
X130925635Y-66923308D01*
X130866739Y-66703504D01*
X130770568Y-66497266D01*
X130711159Y-66412421D01*
X130640046Y-66310859D01*
X130479140Y-66149953D01*
X130292735Y-66019432D01*
X130086497Y-65923261D01*
X129866689Y-65864364D01*
X129640000Y-65844531D01*
X129413310Y-65864364D01*
X129193502Y-65923261D01*
X128987264Y-66019432D01*
X128800859Y-66149953D01*
X128639953Y-66310859D01*
X128509432Y-66497264D01*
X128413261Y-66703502D01*
X128354364Y-66923310D01*
X128334531Y-67150000D01*
X123550500Y-67150000D01*
X123550500Y-64810000D01*
X197921128Y-64810000D01*
X197973733Y-65006326D01*
X198069865Y-65212480D01*
X198200341Y-65398819D01*
X198361180Y-65559658D01*
X198547519Y-65690134D01*
X198753673Y-65786266D01*
X198949999Y-65838871D01*
X198950000Y-65838872D01*
X198950000Y-64810000D01*
X199450000Y-64810000D01*
X199450000Y-65838871D01*
X199646326Y-65786266D01*
X199852480Y-65690134D01*
X200038819Y-65559658D01*
X200199658Y-65398819D01*
X200330134Y-65212480D01*
X200426266Y-65006326D01*
X200478872Y-64810000D01*
X199450000Y-64810000D01*
X198950000Y-64810000D01*
X197921128Y-64810000D01*
X123550500Y-64810000D01*
X123550500Y-63149000D01*
X123567113Y-63087000D01*
X123612500Y-63041613D01*
X123674500Y-63025000D01*
X198989226Y-63025000D01*
X199049658Y-63040723D01*
G37*
%TD.AperFunction*%
%TD*%
M02*
