%TF.GenerationSoftware,KiCad,Pcbnew,7.0.1*%
%TF.CreationDate,2023-05-28T14:58:13-06:00*%
%TF.ProjectId,Phase D,50686173-6520-4442-9e6b-696361645f70,rev?*%
%TF.SameCoordinates,Original*%
%TF.FileFunction,Copper,L1,Top*%
%TF.FilePolarity,Positive*%
%FSLAX46Y46*%
G04 Gerber Fmt 4.6, Leading zero omitted, Abs format (unit mm)*
G04 Created by KiCad (PCBNEW 7.0.1) date 2023-05-28 14:58:13*
%MOMM*%
%LPD*%
G01*
G04 APERTURE LIST*
%TA.AperFunction,ComponentPad*%
%ADD10R,1.700000X1.700000*%
%TD*%
%TA.AperFunction,ComponentPad*%
%ADD11O,1.700000X1.700000*%
%TD*%
%TA.AperFunction,ComponentPad*%
%ADD12C,1.600000*%
%TD*%
%TA.AperFunction,ComponentPad*%
%ADD13O,1.600000X1.600000*%
%TD*%
%TA.AperFunction,ComponentPad*%
%ADD14R,2.000000X2.000000*%
%TD*%
%TA.AperFunction,ComponentPad*%
%ADD15C,2.000000*%
%TD*%
%TA.AperFunction,ViaPad*%
%ADD16C,0.600000*%
%TD*%
%TA.AperFunction,ViaPad*%
%ADD17C,0.800000*%
%TD*%
%TA.AperFunction,Conductor*%
%ADD18C,0.250000*%
%TD*%
%TA.AperFunction,Conductor*%
%ADD19C,0.508000*%
%TD*%
%TA.AperFunction,Conductor*%
%ADD20C,0.203200*%
%TD*%
G04 APERTURE END LIST*
D10*
%TO.P,J6,1,Pin_1*%
%TO.N,IR*%
X199440000Y-81040000D03*
D11*
%TO.P,J6,2,Pin_2*%
%TO.N,GND*%
X199440000Y-78500000D03*
%TO.P,J6,3,Pin_3*%
%TO.N,+5V*%
X199440000Y-75960000D03*
%TD*%
D12*
%TO.P,R4,1*%
%TO.N,+3.3V*%
X199200000Y-72180000D03*
D13*
%TO.P,R4,2*%
%TO.N,GND*%
X199200000Y-64560000D03*
%TD*%
D12*
%TO.P,TH1,1*%
%TO.N,+3.3V*%
X129640000Y-67150000D03*
D13*
%TO.P,TH1,2*%
%TO.N,Therm*%
X137260000Y-67150000D03*
%TD*%
D12*
%TO.P,R2,1*%
%TO.N,GND*%
X130165000Y-89875000D03*
D13*
%TO.P,R2,2*%
X137785000Y-89875000D03*
%TD*%
D10*
%TO.P,J7,1,Pin_1*%
%TO.N,+3.3V*%
X132850000Y-81000000D03*
D11*
%TO.P,J7,2,Pin_2*%
%TO.N,P_Sen*%
X132850000Y-78460000D03*
%TD*%
D12*
%TO.P,R3,1*%
%TO.N,P_Sen*%
X137265000Y-74625000D03*
D13*
%TO.P,R3,2*%
%TO.N,GND*%
X129645000Y-74625000D03*
%TD*%
D10*
%TO.P,J1,1,Pin_1*%
%TO.N,GND*%
X193000000Y-67025000D03*
D11*
%TO.P,J1,2,Pin_2*%
X195540000Y-67025000D03*
%TO.P,J1,3,Pin_3*%
%TO.N,+5V*%
X193000000Y-69565000D03*
%TO.P,J1,4,Pin_4*%
X195540000Y-69565000D03*
%TO.P,J1,5,Pin_5*%
%TO.N,+3.3V*%
X193000000Y-72105000D03*
%TO.P,J1,6,Pin_6*%
X195540000Y-72105000D03*
%TO.P,J1,7,Pin_7*%
%TO.N,unconnected-(J1-Pin_7-Pad7)*%
X193000000Y-74645000D03*
%TO.P,J1,8,Pin_8*%
%TO.N,unconnected-(J1-Pin_8-Pad8)*%
X195540000Y-74645000D03*
%TO.P,J1,9,Pin_9*%
%TO.N,unconnected-(J1-Pin_9-Pad9)*%
X193000000Y-77185000D03*
%TO.P,J1,10,Pin_10*%
%TO.N,unconnected-(J1-Pin_10-Pad10)*%
X195540000Y-77185000D03*
%TO.P,J1,11,Pin_11*%
%TO.N,unconnected-(J1-Pin_11-Pad11)*%
X193000000Y-79725000D03*
%TO.P,J1,12,Pin_12*%
%TO.N,unconnected-(J1-Pin_12-Pad12)*%
X195540000Y-79725000D03*
%TO.P,J1,13,Pin_13*%
%TO.N,unconnected-(J1-Pin_13-Pad13)*%
X193000000Y-82265000D03*
%TO.P,J1,14,Pin_14*%
%TO.N,unconnected-(J1-Pin_14-Pad14)*%
X195540000Y-82265000D03*
%TO.P,J1,15,Pin_15*%
%TO.N,unconnected-(J1-Pin_15-Pad15)*%
X193000000Y-84805000D03*
%TO.P,J1,16,Pin_16*%
%TO.N,unconnected-(J1-Pin_16-Pad16)*%
X195540000Y-84805000D03*
%TO.P,J1,17,Pin_17*%
%TO.N,unconnected-(J1-Pin_17-Pad17)*%
X193000000Y-87345000D03*
%TO.P,J1,18,Pin_18*%
%TO.N,unconnected-(J1-Pin_18-Pad18)*%
X195540000Y-87345000D03*
%TO.P,J1,19,Pin_19*%
%TO.N,unconnected-(J1-Pin_19-Pad19)*%
X193000000Y-89885000D03*
%TO.P,J1,20,Pin_20*%
%TO.N,unconnected-(J1-Pin_20-Pad20)*%
X195540000Y-89885000D03*
%TO.P,J1,21,Pin_21*%
%TO.N,unconnected-(J1-Pin_21-Pad21)*%
X193000000Y-92425000D03*
%TO.P,J1,22,Pin_22*%
%TO.N,unconnected-(J1-Pin_22-Pad22)*%
X195540000Y-92425000D03*
%TO.P,J1,23,Pin_23*%
%TO.N,unconnected-(J1-Pin_23-Pad23)*%
X193000000Y-94965000D03*
%TO.P,J1,24,Pin_24*%
%TO.N,unconnected-(J1-Pin_24-Pad24)*%
X195540000Y-94965000D03*
%TO.P,J1,25,Pin_25*%
%TO.N,unconnected-(J1-Pin_25-Pad25)*%
X193000000Y-97505000D03*
%TO.P,J1,26,Pin_26*%
%TO.N,unconnected-(J1-Pin_26-Pad26)*%
X195540000Y-97505000D03*
%TO.P,J1,27,Pin_27*%
%TO.N,unconnected-(J1-Pin_27-Pad27)*%
X193000000Y-100045000D03*
%TO.P,J1,28,Pin_28*%
%TO.N,unconnected-(J1-Pin_28-Pad28)*%
X195540000Y-100045000D03*
%TO.P,J1,29,Pin_29*%
%TO.N,unconnected-(J1-Pin_29-Pad29)*%
X193000000Y-102585000D03*
%TO.P,J1,30,Pin_30*%
%TO.N,unconnected-(J1-Pin_30-Pad30)*%
X195540000Y-102585000D03*
%TO.P,J1,31,Pin_31*%
%TO.N,unconnected-(J1-Pin_31-Pad31)*%
X193000000Y-105125000D03*
%TO.P,J1,32,Pin_32*%
%TO.N,unconnected-(J1-Pin_32-Pad32)*%
X195540000Y-105125000D03*
%TO.P,J1,33,Pin_33*%
%TO.N,unconnected-(J1-Pin_33-Pad33)*%
X193000000Y-107665000D03*
%TO.P,J1,34,Pin_34*%
%TO.N,unconnected-(J1-Pin_34-Pad34)*%
X195540000Y-107665000D03*
%TO.P,J1,35,Pin_35*%
%TO.N,unconnected-(J1-Pin_35-Pad35)*%
X193000000Y-110205000D03*
%TO.P,J1,36,Pin_36*%
%TO.N,unconnected-(J1-Pin_36-Pad36)*%
X195540000Y-110205000D03*
%TO.P,J1,37,Pin_37*%
%TO.N,unconnected-(J1-Pin_37-Pad37)*%
X193000000Y-112745000D03*
%TO.P,J1,38,Pin_38*%
%TO.N,unconnected-(J1-Pin_38-Pad38)*%
X195540000Y-112745000D03*
%TO.P,J1,39,Pin_39*%
%TO.N,unconnected-(J1-Pin_39-Pad39)*%
X193000000Y-115285000D03*
%TO.P,J1,40,Pin_40*%
%TO.N,unconnected-(J1-Pin_40-Pad40)*%
X195540000Y-115285000D03*
%TO.P,J1,41,Pin_41*%
%TO.N,unconnected-(J1-Pin_41-Pad41)*%
X193000000Y-117825000D03*
%TO.P,J1,42,Pin_42*%
%TO.N,unconnected-(J1-Pin_42-Pad42)*%
X195540000Y-117825000D03*
%TO.P,J1,43,Pin_43*%
%TO.N,unconnected-(J1-Pin_43-Pad43)*%
X193000000Y-120365000D03*
%TO.P,J1,44,Pin_44*%
%TO.N,unconnected-(J1-Pin_44-Pad44)*%
X195540000Y-120365000D03*
%TO.P,J1,45,Pin_45*%
%TO.N,unconnected-(J1-Pin_45-Pad45)*%
X193000000Y-122905000D03*
%TO.P,J1,46,Pin_46*%
%TO.N,unconnected-(J1-Pin_46-Pad46)*%
X195540000Y-122905000D03*
%TO.P,J1,47,Pin_47*%
%TO.N,unconnected-(J1-Pin_47-Pad47)*%
X193000000Y-125445000D03*
%TO.P,J1,48,Pin_48*%
%TO.N,unconnected-(J1-Pin_48-Pad48)*%
X195540000Y-125445000D03*
%TO.P,J1,49,Pin_49*%
%TO.N,GND*%
X193000000Y-127985000D03*
%TO.P,J1,50,Pin_50*%
X195540000Y-127985000D03*
%TD*%
D12*
%TO.P,R1,1*%
%TO.N,Therm*%
X137265000Y-70675000D03*
D13*
%TO.P,R1,2*%
%TO.N,GND*%
X129645000Y-70675000D03*
%TD*%
D10*
%TO.P,J8,1,Pin_1*%
%TO.N,GND*%
X141335000Y-67090000D03*
D11*
%TO.P,J8,2,Pin_2*%
X143875000Y-67090000D03*
%TO.P,J8,3,Pin_3*%
%TO.N,unconnected-(J8-Pin_3-Pad3)*%
X141335000Y-69630000D03*
%TO.P,J8,4,Pin_4*%
%TO.N,unconnected-(J8-Pin_4-Pad4)*%
X143875000Y-69630000D03*
%TO.P,J8,5,Pin_5*%
%TO.N,GND*%
X141335000Y-72170000D03*
%TO.P,J8,6,Pin_6*%
%TO.N,unconnected-(J8-Pin_6-Pad6)*%
X143875000Y-72170000D03*
%TO.P,J8,7,Pin_7*%
%TO.N,P_Sen*%
X141335000Y-74710000D03*
%TO.P,J8,8,Pin_8*%
%TO.N,unconnected-(J8-Pin_8-Pad8)*%
X143875000Y-74710000D03*
%TO.P,J8,9,Pin_9*%
%TO.N,unconnected-(J8-Pin_9-Pad9)*%
X141335000Y-77250000D03*
%TO.P,J8,10,Pin_10*%
%TO.N,Therm*%
X143875000Y-77250000D03*
%TO.P,J8,11,Pin_11*%
%TO.N,Echo*%
X141335000Y-79790000D03*
%TO.P,J8,12,Pin_12*%
%TO.N,unconnected-(J8-Pin_12-Pad12)*%
X143875000Y-79790000D03*
%TO.P,J8,13,Pin_13*%
%TO.N,Trig*%
X141335000Y-82330000D03*
%TO.P,J8,14,Pin_14*%
%TO.N,IR*%
X143875000Y-82330000D03*
%TO.P,J8,15,Pin_15*%
%TO.N,unconnected-(J8-Pin_15-Pad15)*%
X141335000Y-84870000D03*
%TO.P,J8,16,Pin_16*%
%TO.N,unconnected-(J8-Pin_16-Pad16)*%
X143875000Y-84870000D03*
%TO.P,J8,17,Pin_17*%
%TO.N,unconnected-(J8-Pin_17-Pad17)*%
X141335000Y-87410000D03*
%TO.P,J8,18,Pin_18*%
%TO.N,unconnected-(J8-Pin_18-Pad18)*%
X143875000Y-87410000D03*
%TO.P,J8,19,Pin_19*%
%TO.N,unconnected-(J8-Pin_19-Pad19)*%
X141335000Y-89950000D03*
%TO.P,J8,20,Pin_20*%
%TO.N,unconnected-(J8-Pin_20-Pad20)*%
X143875000Y-89950000D03*
%TO.P,J8,21,Pin_21*%
%TO.N,Buzz*%
X141335000Y-92490000D03*
%TO.P,J8,22,Pin_22*%
%TO.N,unconnected-(J8-Pin_22-Pad22)*%
X143875000Y-92490000D03*
%TO.P,J8,23,Pin_23*%
%TO.N,unconnected-(J8-Pin_23-Pad23)*%
X141335000Y-95030000D03*
%TO.P,J8,24,Pin_24*%
%TO.N,unconnected-(J8-Pin_24-Pad24)*%
X143875000Y-95030000D03*
%TO.P,J8,25,Pin_25*%
%TO.N,unconnected-(J8-Pin_25-Pad25)*%
X141335000Y-97570000D03*
%TO.P,J8,26,Pin_26*%
%TO.N,unconnected-(J8-Pin_26-Pad26)*%
X143875000Y-97570000D03*
%TO.P,J8,27,Pin_27*%
%TO.N,unconnected-(J8-Pin_27-Pad27)*%
X141335000Y-100110000D03*
%TO.P,J8,28,Pin_28*%
%TO.N,unconnected-(J8-Pin_28-Pad28)*%
X143875000Y-100110000D03*
%TO.P,J8,29,Pin_29*%
%TO.N,unconnected-(J8-Pin_29-Pad29)*%
X141335000Y-102650000D03*
%TO.P,J8,30,Pin_30*%
%TO.N,unconnected-(J8-Pin_30-Pad30)*%
X143875000Y-102650000D03*
%TO.P,J8,31,Pin_31*%
%TO.N,unconnected-(J8-Pin_31-Pad31)*%
X141335000Y-105190000D03*
%TO.P,J8,32,Pin_32*%
%TO.N,unconnected-(J8-Pin_32-Pad32)*%
X143875000Y-105190000D03*
%TO.P,J8,33,Pin_33*%
%TO.N,unconnected-(J8-Pin_33-Pad33)*%
X141335000Y-107730000D03*
%TO.P,J8,34,Pin_34*%
%TO.N,unconnected-(J8-Pin_34-Pad34)*%
X143875000Y-107730000D03*
%TO.P,J8,35,Pin_35*%
%TO.N,unconnected-(J8-Pin_35-Pad35)*%
X141335000Y-110270000D03*
%TO.P,J8,36,Pin_36*%
%TO.N,unconnected-(J8-Pin_36-Pad36)*%
X143875000Y-110270000D03*
%TO.P,J8,37,Pin_37*%
%TO.N,unconnected-(J8-Pin_37-Pad37)*%
X141335000Y-112810000D03*
%TO.P,J8,38,Pin_38*%
%TO.N,unconnected-(J8-Pin_38-Pad38)*%
X143875000Y-112810000D03*
%TO.P,J8,39,Pin_39*%
%TO.N,unconnected-(J8-Pin_39-Pad39)*%
X141335000Y-115350000D03*
%TO.P,J8,40,Pin_40*%
%TO.N,unconnected-(J8-Pin_40-Pad40)*%
X143875000Y-115350000D03*
%TO.P,J8,41,Pin_41*%
%TO.N,unconnected-(J8-Pin_41-Pad41)*%
X141335000Y-117890000D03*
%TO.P,J8,42,Pin_42*%
%TO.N,unconnected-(J8-Pin_42-Pad42)*%
X143875000Y-117890000D03*
%TO.P,J8,43,Pin_43*%
%TO.N,unconnected-(J8-Pin_43-Pad43)*%
X141335000Y-120430000D03*
%TO.P,J8,44,Pin_44*%
%TO.N,unconnected-(J8-Pin_44-Pad44)*%
X143875000Y-120430000D03*
%TO.P,J8,45,Pin_45*%
%TO.N,unconnected-(J8-Pin_45-Pad45)*%
X141335000Y-122970000D03*
%TO.P,J8,46,Pin_46*%
%TO.N,unconnected-(J8-Pin_46-Pad46)*%
X143875000Y-122970000D03*
%TO.P,J8,47,Pin_47*%
%TO.N,unconnected-(J8-Pin_47-Pad47)*%
X141335000Y-125510000D03*
%TO.P,J8,48,Pin_48*%
%TO.N,unconnected-(J8-Pin_48-Pad48)*%
X143875000Y-125510000D03*
%TO.P,J8,49,Pin_49*%
%TO.N,GND*%
X141335000Y-128050000D03*
%TO.P,J8,50,Pin_50*%
X143875000Y-128050000D03*
%TD*%
D10*
%TO.P,J5,1,Pin_1*%
%TO.N,+5V*%
X137075000Y-78500000D03*
D11*
%TO.P,J5,2,Pin_2*%
%TO.N,Echo*%
X137075000Y-81040000D03*
%TO.P,J5,3,Pin_3*%
%TO.N,Trig*%
X137075000Y-83580000D03*
%TO.P,J5,4,Pin_4*%
%TO.N,GND*%
X137075000Y-86120000D03*
%TD*%
D14*
%TO.P,LS1,1,1*%
%TO.N,Buzz*%
X136425000Y-98250000D03*
D15*
%TO.P,LS1,2,2*%
%TO.N,GND*%
X128825000Y-98250000D03*
%TD*%
D16*
%TO.N,GND*%
X139475000Y-128050000D03*
X195600000Y-65275000D03*
X199200000Y-66200000D03*
X197400000Y-127985000D03*
X128000000Y-74600000D03*
X126850000Y-98275000D03*
X137050000Y-87950000D03*
X201150000Y-78525000D03*
X139575000Y-66975000D03*
X137775000Y-88300000D03*
X128050000Y-70650000D03*
X130150000Y-88050000D03*
X145650000Y-66975000D03*
X139700000Y-71675000D03*
X145650000Y-128050000D03*
X193000000Y-65325000D03*
X191262500Y-128012500D03*
D17*
%TO.N,+3.3V*%
X194392557Y-73517558D03*
%TD*%
D18*
%TO.N,Buzz*%
X136425000Y-97400000D02*
X141335000Y-92490000D01*
X136425000Y-98250000D02*
X136425000Y-97400000D01*
D19*
%TO.N,GND*%
X201125000Y-78500000D02*
X201150000Y-78525000D01*
X199200000Y-66200000D02*
X199200000Y-64560000D01*
X139700000Y-71675000D02*
X140195000Y-72170000D01*
X130165000Y-89875000D02*
X130165000Y-88065000D01*
X137075000Y-87925000D02*
X137075000Y-86120000D01*
X137785000Y-89875000D02*
X137785000Y-88310000D01*
X195600000Y-66965000D02*
X195540000Y-67025000D01*
X126850000Y-98275000D02*
X126875000Y-98250000D01*
X137050000Y-87950000D02*
X137075000Y-87925000D01*
X140195000Y-72170000D02*
X141335000Y-72170000D01*
X193000000Y-65325000D02*
X193000000Y-67025000D01*
X137785000Y-88310000D02*
X137775000Y-88300000D01*
X128075000Y-70675000D02*
X128050000Y-70650000D01*
X130165000Y-88065000D02*
X130150000Y-88050000D01*
X129645000Y-74625000D02*
X128025000Y-74625000D01*
X141345000Y-66975000D02*
X141360000Y-66990000D01*
X139575000Y-66975000D02*
X141345000Y-66975000D01*
X199440000Y-78500000D02*
X201125000Y-78500000D01*
X143875000Y-67090000D02*
X145535000Y-67090000D01*
X145535000Y-67090000D02*
X145650000Y-66975000D01*
X145650000Y-128050000D02*
X143875000Y-128050000D01*
X126875000Y-98250000D02*
X128825000Y-98250000D01*
X139475000Y-128050000D02*
X141335000Y-128050000D01*
X128025000Y-74625000D02*
X128000000Y-74600000D01*
X195600000Y-65275000D02*
X195600000Y-66965000D01*
X191262500Y-128012500D02*
X191290000Y-127985000D01*
X191290000Y-127985000D02*
X193000000Y-127985000D01*
X129645000Y-70675000D02*
X128075000Y-70675000D01*
X197400000Y-127985000D02*
X195540000Y-127985000D01*
D20*
%TO.N,P_Sen*%
X141345000Y-74625000D02*
X141360000Y-74610000D01*
X136685000Y-74625000D02*
X137265000Y-74625000D01*
X137265000Y-74625000D02*
X141345000Y-74625000D01*
X132850000Y-78460000D02*
X136685000Y-74625000D01*
%TO.N,Echo*%
X140085000Y-81040000D02*
X141335000Y-79790000D01*
X137075000Y-81040000D02*
X140085000Y-81040000D01*
%TO.N,Trig*%
X137075000Y-83580000D02*
X140085000Y-83580000D01*
X141360000Y-82305000D02*
X141360000Y-82230000D01*
X140085000Y-83580000D02*
X141360000Y-82305000D01*
%TO.N,unconnected-(J8-Pin_19-Pad19)*%
X141360000Y-89850000D02*
X141360000Y-89925000D01*
%TO.N,+5V*%
X198142898Y-69565000D02*
X200301600Y-71723702D01*
X193000000Y-69565000D02*
X198142898Y-69565000D01*
X200275000Y-75125000D02*
X199440000Y-75960000D01*
X193547009Y-73371600D02*
X194221600Y-72697009D01*
X194221600Y-72697009D02*
X194221600Y-70786600D01*
X200301600Y-72636298D02*
X200275000Y-72662898D01*
X192592991Y-73371600D02*
X193547009Y-73371600D01*
X187464591Y-78500000D02*
X192592991Y-73371600D01*
X200275000Y-72662898D02*
X200275000Y-75125000D01*
X200301600Y-71723702D02*
X200301600Y-72636298D01*
X194221600Y-70786600D02*
X193000000Y-69565000D01*
X137075000Y-78500000D02*
X187464591Y-78500000D01*
%TO.N,+3.3V*%
X133434999Y-76246392D02*
X131698400Y-77982991D01*
D18*
X129640000Y-67150000D02*
X132660000Y-67150000D01*
D20*
X131698400Y-79848400D02*
X132850000Y-81000000D01*
X199200000Y-72180000D02*
X199120000Y-72100000D01*
X133434999Y-76246392D02*
X133434999Y-67924999D01*
X195540000Y-72370115D02*
X194392557Y-73517558D01*
X133434999Y-67924999D02*
X132660000Y-67150000D01*
X195540000Y-72105000D02*
X195540000Y-72370115D01*
X195545000Y-72100000D02*
X195540000Y-72105000D01*
X131698400Y-77982991D02*
X131698400Y-79848400D01*
X199120000Y-72100000D02*
X195545000Y-72100000D01*
X193070000Y-72175000D02*
X193070000Y-72220000D01*
D18*
X132660000Y-67150000D02*
X134786600Y-65023400D01*
D20*
X134786600Y-65023400D02*
X185918400Y-65023400D01*
X185918400Y-65023400D02*
X193070000Y-72175000D01*
%TO.N,IR*%
X145090000Y-81040000D02*
X143900000Y-82230000D01*
X199440000Y-81040000D02*
X145090000Y-81040000D01*
%TO.N,Therm*%
X137265000Y-70675000D02*
X140040000Y-73450000D01*
X137265000Y-70675000D02*
X137265000Y-67155000D01*
X145051600Y-74026600D02*
X145051600Y-76073400D01*
X145051600Y-76073400D02*
X143875000Y-77250000D01*
X140040000Y-73450000D02*
X144475000Y-73450000D01*
X144475000Y-73450000D02*
X145051600Y-74026600D01*
X137265000Y-67155000D02*
X137260000Y-67150000D01*
%TD*%
M02*
